<svg version="1.1" xmlns="http://www.w3.org/2000/svg" xmlns:xlink="http://www.w3.org/1999/xlink" width="96.001" height="59.672" viewBox="0,0,96.001,59.672"><g transform="translate(-191.9995,-149.914)"><g data-paper-data="{&quot;isPaintingLayer&quot;:true}" fill-rule="nonzero" stroke-linecap="butt" stroke-linejoin="miter" stroke-miterlimit="10" stroke-dasharray="" stroke-dashoffset="0" style="mix-blend-mode: normal"><path d="M283.0005,195.981c0,4.752 -3.854,8.605 -8.605,8.605l-67.21602,3.52738c-1.74637,0 -3.93468,1.78527 -6.23109,-0.04866c-0.12264,-0.09794 -1.46031,-0.42111 -3.34361,-2.60894c-2.46336,-2.86169 -5.60528,-7.89374 -5.60528,-9.47477v-37.463c0,-4.752 3.852,-8.604 8.604,-8.604c0,0 12.931,0 21.73256,0c13.62227,0 52.05844,0 52.05844,0c4.754,0 12.605,5.852 12.605,10.604l-4,35.463z" fill="#2c3849" stroke="none" stroke-width="1"/><path d="M288.0005,200.981c0,4.752 -3.854,8.605 -8.605,8.605h-73.792c-4.752,0 -8.604,-3.854 -8.604,-8.605v-37.463c0,-4.752 3.852,-8.604 8.604,-8.604h73.791c4.754,0 8.605,3.852 8.605,8.604v37.463z" fill="#ffbd00" stroke="none" stroke-width="1"/><text transform="translate(208.58287,176.37411) scale(0.5,0.5)" font-size="40" xml:space="preserve" fill="#2c3849" fill-rule="nonzero" stroke="#2c3849" stroke-width="2" stroke-linecap="butt" stroke-linejoin="miter" stroke-miterlimit="10" stroke-dasharray="" stroke-dashoffset="0" font-family="Sans Serif" font-weight="normal" text-anchor="start" style="mix-blend-mode: normal"><tspan x="0" dy="0">    My</tspan><tspan x="0" dy="46.150000000000006px"> Music</tspan></text></g></g></svg>