<svg version="1.1" xmlns="http://www.w3.org/2000/svg" xmlns:xlink="http://www.w3.org/1999/xlink" width="96.001" height="59.672" viewBox="0,0,96.001,59.672"><g transform="translate(-191.9995,-149.914)"><g data-paper-data="{&quot;isPaintingLayer&quot;:true}" fill-rule="nonzero" stroke-linecap="butt" stroke-linejoin="miter" stroke-miterlimit="10" stroke-dasharray="" stroke-dashoffset="0" style="mix-blend-mode: normal"><path d="M283.0005,195.981c0,4.752 -3.854,8.605 -8.605,8.605l-68.00629,3.92857c-0.18054,0 -0.65343,0.41507 -0.84649,0.38883c-1.41409,-0.19219 -3.14336,0.07513 -4.88714,-1.18295c-4.28427,-3.09096 -8.65608,-8.4911 -8.65608,-11.73946v-37.463c0,-4.752 3.852,-8.604 8.604,-8.604h73.791c4.754,0 13.17643,6.42343 13.17643,11.17543l-4.57143,34.89157z" fill="#2c3849" stroke="none" stroke-width="1"/><path d="M288.0005,200.981c0,4.752 -3.854,8.605 -8.605,8.605h-73.792c-4.752,0 -8.604,-3.854 -8.604,-8.605v-37.463c0,-4.752 3.852,-8.604 8.604,-8.604h73.791c4.754,0 8.605,3.852 8.605,8.604v37.463z" fill="#ffbd00" stroke="none" stroke-width="1"/><text transform="translate(208.58287,176.37411) scale(0.5,0.5)" font-size="40" xml:space="preserve" fill="#2c3849" fill-rule="nonzero" stroke="#2c3849" stroke-width="2" stroke-linecap="butt" stroke-linejoin="miter" stroke-miterlimit="10" stroke-dasharray="" stroke-dashoffset="0" font-family="Sans Serif" font-weight="normal" text-anchor="start" style="mix-blend-mode: normal"><tspan x="0" dy="0">    My</tspan><tspan x="0" dy="46.150000000000006px">Games</tspan></text></g></g></svg>