<svg version="1.1" xmlns="http://www.w3.org/2000/svg" xmlns:xlink="http://www.w3.org/1999/xlink" width="312.13041" height="220.17497" viewBox="0,0,312.13041,220.17497"><defs><radialGradient cx="241.65939" cy="160.12347" r="1.44295" gradientUnits="userSpaceOnUse" id="color-1"><stop offset="0" stop-color="#b4b4b4"/><stop offset="1" stop-color="#dbdbdb"/></radialGradient><radialGradient cx="251.92738" cy="173.32517" r="4.19101" gradientUnits="userSpaceOnUse" id="color-2"><stop offset="0" stop-color="#b4b4b4"/><stop offset="1" stop-color="#dbdbdb"/></radialGradient><radialGradient cx="245.53608" cy="149.43638" r="2.40983" gradientUnits="userSpaceOnUse" id="color-3"><stop offset="0" stop-color="#b4b4b4"/><stop offset="1" stop-color="#dbdbdb"/></radialGradient></defs><g transform="translate(-94.42549,-64.6024)"><g data-paper-data="{&quot;isPaintingLayer&quot;:true}" fill-rule="nonzero" stroke="none" stroke-linecap="butt" stroke-linejoin="miter" stroke-miterlimit="10" stroke-dasharray="" stroke-dashoffset="0" style="mix-blend-mode: normal"><path d="M94.4255,284.77738v-220.17497h312.13041v220.17497z" fill="#edf3d4" stroke-width="0"/><path d="M172.83673,121.68477l0.66883,-1.33719c0.4878,-0.0901 1.02095,-0.12825 1.61047,-0.10342c0,0 2.50139,-0.00145 2.50139,-2.50145c0,-1.64871 -1.08713,-2.21027 -1.82762,-2.40144c0.72556,-1.6538 1.50825,-3.28958 2.48645,-4.60326c1.55047,-2.08221 4.2054,-3.57642 6.24685,-5.10751c1.53707,-1.16217 3.89078,-3.09155 5.84899,-3.51905c1.40877,-0.30755 5.77209,-0.52948 7.10246,-0.06314c2.12638,0.74536 3.76228,2.99939 5.2314,4.47406c3.31477,3.32729 6.7393,6.6222 10.29028,9.71247c2.72039,2.36744 2.29748,3.18387 6.24704,3.95085c4.50348,0.87454 7.32484,-1.90152 10.38048,-4.44567c0.71115,-0.86468 1.62778,-1.55614 2.67243,-2.0007c0.37564,-0.23708 0.76209,-0.45763 1.16028,-0.65596c3.86137,-2.89602 8.68057,-5.25593 13.68519,-4.71744c2.7266,0.29338 5.53608,1.11956 8.22629,1.65745c0.53587,0.10714 1.18192,0.1773 1.87161,0.2479c0.51688,-0.15579 1.03145,-0.21409 1.53463,-0.04636c0.36671,0.12224 0.71715,0.24647 1.05016,0.37291c1.14238,0.20725 2.20176,0.53774 2.90155,1.15207c0.35217,0.30916 0.6631,0.66617 0.93891,1.05855c0.91017,0.89285 1.39368,1.94624 1.49473,3.25407c0.52004,1.64566 0.86711,3.37213 1.32256,4.73852c1.58594,4.75791 2.83709,9.40069 4.80005,14.11262c2.31383,2.37868 4.73958,5.441 7.4042,7.42967c3.36424,2.5108 7.92447,3.39561 11.40664,5.7287c2.65024,1.7757 6.00546,6.09833 9.75375,5.4284c2.59684,-0.46413 5.3653,-5.03642 7.2159,-6.69454c1.21249,-1.08638 3.10472,-1.27508 4.59071,-1.94005c3.3967,-1.51999 6.14463,-1.50723 9.31157,-1.00558c1.24665,-0.15038 2.55044,0.08903 3.64119,0.68187c4.63239,0.93739 4.47458,3.78637 5.33081,7.6762c0.92928,0.90788 1.50671,2.17691 1.50671,3.5787c0,0.39275 -0.04514,0.77548 -0.13077,1.14214c0.01245,0.03771 0.02495,0.0755 0.03744,0.11325c0.93214,1.3597 1.68586,3.89926 1.97314,6.18723c0.9558,3.44432 1.52561,6.94984 0.83533,10.3905c-0.74719,3.72432 -5.38409,5.35823 -8.27787,6.80641c-4.16123,2.08248 -7.30616,4.01616 -9.47338,8.263c-4.15458,5.53945 -8.37124,14.24154 -7.70093,21.32544c0.41485,4.38412 3.15569,6.62914 4.7018,10.33428c1.52756,3.66069 0.35924,9.79221 0.35924,13.69372c0,1.61803 0.63873,3.31902 0.12706,4.85402c-0.68365,2.05095 -4.35024,5.11311 -5.70139,6.46257c-1.17937,1.49756 -1.88786,3.15814 -3.23147,4.0668c-2.48187,1.67843 -5.77999,2.162 -8.64022,3.94341c-5.75574,3.58478 -10.51164,4.71038 -17.31558,4.71038c-2.46307,0 -5.27335,0.39596 -7.65675,-0.42734c-5.23687,-1.80898 -9.97126,-5.2822 -14.93662,-7.76924c-1.54088,-0.76886 -4.13668,-2.15365 -5.72754,-2.4753c-3.66769,-0.74156 -7.79615,0.29839 -11.52083,-0.03231c-2.70128,-0.23983 -4.29114,-1.86767 -6.77609,-2.69867c-0.16406,-0.05487 -5.98906,-1.23207 -6.21278,-1.25254c-5.15468,-0.47167 -10.3266,0.53821 -15.49259,0.54875c-1.07017,0.00218 -3.50637,0.16968 -4.62527,-0.3479c-2.14777,-0.9935 -4.39736,-3.37473 -6.29671,-4.79925c-6.67621,-4.80243 -7.8451,-13.76172 -12.43845,-20.31798c-0.84673,-1.20858 -4.06309,-5.21937 -5.42626,-5.87942c-3.76764,-1.82431 -4.25194,-0.60422 -7.59885,-0.26732c-2.44435,0.24605 -5.528,1.93814 -7.97231,1.69178c-2.80292,-0.28251 -6.07971,-2.28778 -8.80372,-2.79181c-2.44264,-0.45197 -4.69781,-2.45674 -6.91217,-3.52621c-1.90195,-1.87101 -2.80871,-3.99997 -3.58081,-6.58817c-0.94406,-3.16461 -2.37083,-7.196 -1.65707,-10.56905c0.66307,-3.13355 3.50374,-5.77586 5.54164,-7.83941c2.19915,-2.22682 2.96758,-5.25497 4.77479,-7.64632c3.35826,-4.44375 7.47927,-8.08745 6.04937,-14.45984c-0.493,-2.19706 -2.35041,-4.1822 -3.65199,-5.8621c-1.48414,-0.74207 -2.61134,-2.0611 -3.78385,-3.23522c-0.90423,-0.90548 -3.39776,-2.26649 -4.15518,-3.49765c-0.68294,-1.1101 -1.74754,-2.69602 -1.01858,-3.77647c0.40919,-0.60648 1.38983,-0.59246 1.87795,-1.13742c2.09091,-2.3344 3.41515,-5.62436 5.25245,-8.11728c1.20824,-1.63938 3.48192,-2.87512 4.84737,-4.23903c1.77438,-1.77239 3.73383,-3.35507 5.59716,-5.0337c1.0729,-0.96655 1.92542,-2.01303 2.799,-2.92984c2.22287,1.09502 3.33539,-1.12915 3.33539,-1.12915z" data-paper-data="{&quot;noHover&quot;:false,&quot;origItem&quot;:[&quot;Path&quot;,{&quot;applyMatrix&quot;:true,&quot;segments&quot;:[[[339.08027,245.6909],[4.44575,2.19003],[-1.74717,1.83362]],[[333.48499,251.54709],[2.14581,-1.93311],[-3.72666,3.35727]],[[322.29516,261.60793],[3.54877,-3.54478],[-2.7309,2.72782]],[[312.60368,270.08037],[2.41647,-3.27875],[-3.67459,4.98583]],[[302.10309,286.30586],[4.18183,-4.6688],[-0.97625,1.08993]],[[298.34786,288.57902],[0.81837,-1.21296],[-1.45793,2.16088]],[[300.38617,296.12886],[-1.36589,-2.2202],[1.51484,2.46231]],[[308.69722,303.12215],[-1.80847,-1.81096],[2.34501,2.34824]],[[316.26559,309.5905],[-2.96828,-1.48414],[2.60315,3.35979]],[[323.57108,321.30927],[-0.98599,-4.39411],[2.85979,12.74477]],[[311.47509,350.2107],[6.71651,-8.8875],[-3.61441,4.7827]],[[301.92564,365.49443],[4.39831,-4.45365],[-4.0758,4.12709]],[[290.84179,381.1652],[1.32615,-6.2671],[-1.42751,6.7461]],[[294.15405,402.29221],[-1.88812,-6.32923],[1.5442,5.17639]],[[301.31366,415.46108],[-3.80391,-3.74202],[4.42873,2.13895]],[[315.13599,422.50768],[-4.88529,-0.90393],[5.44802,1.00806]],[[332.74068,428.08478],[-5.60583,-0.56502],[4.88863,0.49273]],[[348.68424,424.69899],[-4.8887,0.4921],[6.69382,-0.67381]],[[363.87939,425.22882],[-7.53528,-3.64862],[2.72634,1.32011]],[[374.72541,436.97761],[-1.69347,-2.41716],[9.18671,13.11253]],[[399.57797,477.59008],[-13.35241,-9.60486],[3.7987,2.84903]],[[412.16197,487.18291],[-4.29554,-1.98701],[2.23779,1.03515]],[[421.40708,487.87604],[-2.14033,0.00437],[10.33199,-0.02109]],[[452.37186,486.77178],[-10.30936,-0.94334],[0.44746,0.04094]],[[464.78782,489.27527],[-0.32813,-0.10973],[4.96991,1.66198]],[[478.32957,494.67195],[-5.40256,-0.47967],[7.44934,0.6614]],[[501.35434,494.73783],[-7.33537,-1.48311],[3.18171,0.6433]],[[512.80224,499.68986],[-3.08176,-1.53772],[9.93072,4.97409]],[[542.66095,515.23298],[-10.47375,-3.61796],[4.76679,1.6466]],[[557.96721,516.09094],[-4.92614,0],[13.60789,0]],[[592.58222,506.68032],[-11.51149,7.16957],[5.72048,-3.56282]],[[609.85526,498.79981],[-4.96374,3.35685],[2.68724,-1.81731]],[[616.31435,490.67003],[-2.35873,2.99511],[2.70229,-2.69893]],[[627.71113,477.75175],[-1.3673,4.10191],[1.02334,-3.07001]],[[627.45455,468.04693],[0,3.23607],[0,-7.80301]],[[626.72911,440.67042],[3.05512,7.32137],[-3.09222,-7.41029]],[[617.32152,420.00998],[0.82969,8.76823],[-1.34063,-14.16779]],[[632.71568,377.38778],[-8.30917,11.0789],[4.33444,-8.49369]],[[651.6618,360.87255],[-8.32247,4.16496],[5.78755,-2.89637]],[[668.21776,347.26698],[-1.49438,7.44865],[1.38057,-6.88133]],[[666.54844,326.49688],[1.9116,6.88864],[-0.57457,-4.57594]],[[662.60359,314.12911],[1.86429,2.71941],[-0.02499,-0.0755]],[[662.52873,313.90272],[0.02491,0.07543],[0.17126,-0.73333]],[[662.79056,311.61953],[0,0.78551],[0,-2.80358]],[[659.77827,304.46607],[1.85857,1.81577],[-1.71246,-7.77965]],[[649.11994,289.12279],[9.26479,1.87477],[-2.18149,-1.18568]],[[641.83849,287.76115],[2.49331,-0.30076],[-6.33387,-1.0033]],[[623.21687,289.77556],[6.79341,-3.03999],[-2.97199,1.32994]],[[614.21496,293.5675],[2.42499,-2.17276],[-3.7012,3.31624]],[[599.60199,307.04119],[5.19369,-0.92826],[-7.49658,1.33985]],[[580.10155,296.19761],[5.30048,3.55139],[-6.96435,-4.66619]],[[557.30085,284.75619],[6.72848,5.0216],[-5.32926,-3.97734]],[[542.50704,269.90928],[4.62767,4.75736],[-3.92592,-9.42386]],[[532.92311,241.6932],[3.17188,9.51582],[-0.91091,-2.73278]],[[530.28221,232.21796],[1.04008,3.29131],[-0.20211,-2.61567]],[[527.29615,225.71109],[1.82033,1.7857],[-0.55162,-0.78475]],[[525.41997,223.59455],[0.70434,0.61833],[-1.39958,-1.22867]],[[519.62099,221.2917],[2.28476,0.41449],[-0.66603,-0.25289]],[[517.52214,220.54629],[0.73341,0.24447],[-1.00637,-0.33546]],[[514.45486,220.63951],[1.03376,-0.31159],[-1.37939,-0.1412]],[[510.71419,220.14431],[1.07173,0.21428],[-5.38042,-1.07577]],[[494.27314,216.83128],[5.4532,0.58676],[-10.00925,-1.07698]],[[466.92239,226.26623],[7.72273,-5.79205],[-0.79638,0.39666]],[[464.60365,227.57796],[0.75128,-0.47416],[-2.08929,0.88913]],[[459.26318,231.57877],[1.4223,-1.72935],[-6.11129,5.0883]],[[438.51908,240.46591],[9.00695,1.74908],[-7.89913,-1.53395]],[[426.03124,232.56183],[5.44078,4.73488],[-7.10196,-6.18054]],[[405.45699,213.13396],[6.62955,6.65458],[-2.93824,-2.94933]],[[394.99683,204.18447],[4.25276,1.49072],[-2.66074,-0.93267]],[[380.79779,204.3073],[2.81754,-0.61511],[-3.91642,0.85501]],[[369.10587,211.34123],[3.07414,-2.32434],[-4.0829,3.06217]],[[356.61893,221.55074],[3.10094,-4.16441],[-1.9564,2.62735]],[[351.64998,230.75355],[1.45112,-3.3076],[1.48097,0.38234]],[[355.30553,235.55613],[0,-3.29741],[0,5]],[[350.30553,240.55613],[0,0],[-1.17903,-0.04965]],[[347.08548,240.76201],[0.9756,-0.18021],[0,0]],[345.74889,243.43518]],&quot;closed&quot;:true}]}" fill="#050015" stroke-width="0.5"/><path d="M147.97593,142.69485c0,0 29.6908,-34.07792 35.51028,-38.38332c3.40233,-2.51713 9.21583,-4.85455 9.21583,-4.85455c0,0 5.41349,-0.1395 7.16434,1.2018c3.99053,3.05707 8.90691,9.39413 8.90691,9.39413c0,0 -6.30287,9.13334 -10.4453,13.62158c-5.36693,5.81496 -16.22327,18.33034 -16.22327,18.33034c0,0 -2.68595,5.84993 -0.617,9.2533c3.26727,5.37457 11.08443,10.26993 9.2977,14.32351c-0.28662,0.65026 -6.25981,8.40138 -11.90443,14.7062c-1.28501,1.4353 -4.7594,11.82701 -0.14181,18.12412c2.38648,3.2545 7.03608,9.57951 12.7801,10.67643c6.85881,1.30982 15.03779,-2.67204 19.49707,1.37644c3.79599,3.4463 3.63352,8.38236 5.41927,12.80668c0.59324,1.46981 2.35115,6.6025 6.78338,9.94262c3.25531,2.45319 13.26265,1.68314 21.11645,2.90131c3.93136,0.60978 7.32312,2.98645 9.05826,3.97321c1.80134,1.02441 19.0942,2.40492 20.9615,4.4766c0.40979,0.45464 5.17256,3.95986 11.64928,4.36367c5.86658,0.36577 28.67936,-14.8355 30.103,-13.54265c4.24946,3.85901 -26.47573,23.4566 -28.49181,24.45361c-1.23969,0.61306 -11.3678,0.50628 -17.62164,-1.76164c-3.87241,-1.40431 -6.54107,-2.19567 -6.51451,-2.09605c1.0301,3.86458 -41.34355,-13.43051 -42.17028,-12.70471c-1.47085,1.29128 -12.62612,5.35093 -23.64723,-3.66618c-5.6327,-4.60849 -9.56275,-22.22141 -15.59644,-25.53105c-3.08088,-1.68994 -6.41825,0.11871 -9.60874,0.0746c-1.50333,-0.02078 -5.23126,0.04822 -6.62719,0.11945c-4.78896,0.24438 -6.44037,-1.62522 -7.76493,-2.00413c-2.38115,-0.68116 -9.1961,-4.98925 -9.36476,-4.97593c-1.94842,0.15385 -7.02434,-8.02429 -2.44774,-24.43262c1.50099,-5.38145 14.49444,-16.94498 14.81495,-21.67522c0.37003,-5.46113 -5.6872,-6.6991 -8.59852,-9.4581c-3.22753,-3.05867 -4.49271,-9.03343 -4.49271,-9.03343z" fill="#080066" stroke-width="0"/><path d="M281.05493,162.73522c0,16.26451 -13.13467,29.44951 -29.33711,29.44951c-16.20244,0 -29.33711,-13.185 -29.33711,-29.44951c0,-16.26451 13.13467,-29.44951 29.33711,-29.44951c16.20243,0 29.33711,13.185 29.33711,29.44951z" fill="#000000" stroke-width="0"/><path d="M199.43694,127.97322c-0.70484,0.80162 -1.39157,1.71508 -2.25722,2.56018c-1.50339,1.46771 -3.08251,2.84865 -4.51414,4.39834c-1.10169,1.19253 -2.93484,2.27055 -3.90968,3.70394c-1.48238,2.17968 -2.54908,5.0523 -4.23609,7.09338c-0.39383,0.47649 -1.18478,0.4635 -1.51492,0.99377c-0.58815,0.94468 0.27126,2.32998 0.82228,3.3006c0.61111,1.07646 2.62323,2.26559 3.35279,3.05729c0.94601,1.02659 1.85574,2.17897 3.05319,2.8278c1.05015,1.46882 2.54938,3.20216 2.94714,5.12315c1.15368,5.5717 -2.17016,8.74958 -4.87969,12.63497c-1.4581,2.09088 -2.07805,4.73464 -3.85238,6.68167c-1.64424,1.80426 -3.93639,4.11104 -4.47138,6.85086c-0.57588,2.94923 0.57451,6.46921 1.33621,9.23619c0.62295,2.26299 1.35374,4.12118 2.88829,5.7571c1.78662,0.93509 3.60533,2.68542 5.57613,3.08059c2.19781,0.4407 4.84051,0.71098 7.10198,0.95799c1.97215,0.21541 4.45969,0.21514 6.43186,0c2.70038,-0.29458 3.0901,-1.36346 6.12994,0.23162c1.09984,0.57712 3.69227,4.07955 4.37544,5.13628c3.70605,5.73247 4.63932,13.55575 10.02587,17.75475c1.53245,1.24552 3.34369,3.32507 5.07657,4.19375c0.90276,0.45254 2.86617,0.30493 3.72961,0.30302c4.16807,-0.00922 8.33269,-0.89516 12.49163,-0.48276c0.18051,0.0179 4.8764,1.0465 5.00877,1.09447c2.00493,0.72657 3.28347,2.14959 5.46294,2.35929c3.00517,0.28914 6.32932,-0.61958 9.28852,0.0288c1.28355,0.28124 3.37502,1.49265 4.61825,2.16491c4.00619,2.17454 7.82017,5.21338 12.04543,6.79506c1.92299,0.71985 4.18748,0.37508 6.17476,0.37508c5.48962,0 9.32029,-0.97973 13.96419,-4.11408c3.55707,-2.4008 6.86469,-3.27129 9.57387,-6.9993c1.09014,-1.1799 4.04604,-3.85429 4.59762,-5.64754c0.41283,-1.34213 -0.10351,-2.82798 -0.10351,-4.24271c0,-2.41933 0.47272,-5.81699 0.30798,-8.73019c0.51884,0.88181 1.14392,1.65089 1.88645,2.21995c-0.00432,0.0798 -0.00966,0.15769 -0.01672,0.23293c-0.24063,2.56149 -0.49508,8.47002 1.82515,10.91714c-0.01585,0.50553 -0.03891,0.87701 -0.07223,0.98534c-0.77033,2.50441 -3.78173,5.40445 -5.41879,7.18069c-3.03514,4.0556 -6.05208,10.46929 -9.92875,13.10459c-5.24854,3.56787 -10.41026,-0.53507 -16.61527,-0.53507c-2.52342,0 -5.03465,0.24948 -7.48399,-0.61171c-4.41352,-1.5518 -8.39281,-4.77691 -12.54032,-7.01996c-0.58227,-0.31621 -2.93179,0.21111 -3.577,0.07348c-2.82085,-0.60174 -6.04937,-1.48935 -8.92315,-1.82693c-3.75816,-0.44146 -6.63606,-3.07877 -10.47171,-3.45376c-5.53785,-0.54139 -12.14241,2.32317 -17.47035,-0.17974c-1.98821,-0.934 -4.10598,-3.26951 -5.85043,-4.68734c-4.33148,-3.62515 -5.96003,-8.45511 -8.33384,-13.59939c-1.19238,-2.58399 -2.95949,-7.44158 -5.49293,-8.90182c-1.30346,-0.75129 -2.61958,0.09523 -3.88648,0.23163c-2.20426,0.23731 -5.02263,0.23727 -7.22689,0c-2.28128,-0.24555 -5.26199,-0.51172 -7.46735,-1.01559c-2.57969,-0.5894 -4.8648,-2.54293 -7.17204,-3.82692c-6.18346,-6.76265 -8.1712,-19.17548 -2.19037,-26.85677c0.5277,-0.67774 1.36093,-1.0025 1.94349,-1.62523c1.61058,-1.72161 2.12532,-4.24617 3.43228,-6.14658c1.87979,-2.73334 5.0393,-5.03454 4.22614,-9.07434c-0.1255,-0.62348 -1.32992,-2.34835 -1.60578,-2.77116c-1.30552,-0.70738 -2.28809,-1.97521 -3.32089,-3.09292c-2.74804,-2.97399 -7.01988,-6.20365 -4.93076,-11.40429c0.37204,-0.92614 1.5209,-1.1996 2.12742,-1.9666c1.55654,-1.96837 2.52518,-4.67782 3.95916,-6.72165c1.16454,-1.6598 2.92585,-2.71513 4.28557,-4.19036c1.45584,-1.57951 3.05978,-2.99012 4.59169,-4.48274c1.872,-1.82398 3.23801,-4.15406 5.5426,-5.4263c1.00281,-2.37802 1.95046,-5.12391 3.33651,-7.11652c1.54787,-2.22526 3.86373,-3.75798 5.88959,-5.40453c0.64991,-0.52459 1.38835,-1.12517 2.17163,-1.69767c0.66305,1.30341 1.72229,2.37144 3.01911,3.0455c-1.02026,0.66723 -2.01651,1.53196 -2.77026,2.14956c-1.6471,1.33871 -3.78644,2.64277 -5.03741,4.46335c-0.78924,1.14861 -1.41914,2.57724 -2.00454,4.02323c0.59744,0.16715 1.4747,0.65802 1.4747,2.09956c0,2.18587 -2.01708,2.18587 -2.01708,2.18587c-0.47564,-0.0217 -0.90544,0.01122 -1.29901,0.09001l-0.5392,1.16864c0,0 -0.89674,1.94357 -2.69021,0.98614z" fill="#080066" stroke-width="0.5"/><path d="M311.68342,204.18113c-0.54083,-6.1938 2.85818,-13.78994 6.21022,-18.63335c0.67401,-1.4313 1.46518,-2.56139 2.37533,-3.51411c2.11323,0.29206 4.39395,-0.81764 5.3957,-2.71967c0.12748,0.01866 0.25652,0.03252 0.38694,0.04138c1.12937,0.75291 3.54314,-0.92897 4.31399,-1.81338c2.74163,-3.14558 3.6448,-3.9962 3.15052,-9.53748c-0.04906,-0.54994 -0.04233,-1.17483 -0.19255,-1.71242c0.36947,-2.55988 -0.65089,-7.30148 -2.06978,-9.29632c0.09249,-0.38019 0.1415,-0.77738 0.1415,-1.18601c0,-1.92087 -1.08318,-3.58875 -2.67205,-4.42615c0.18528,-0.52259 0.28612,-1.08513 0.28612,-1.67123c0,-2.4353 -1.74105,-4.46397 -4.04634,-4.90916c-1.24967,-0.82523 -2.86051,-1.13771 -4.35537,-0.87671c-0.10244,-0.00626 -0.20571,-0.00944 -0.30973,-0.00944c-0.08893,0 -0.17732,0.00232 -0.26511,0.00691c-0.08778,-0.00458 -0.17618,-0.00691 -0.26511,-0.00691c-0.31705,0 -0.6272,0.02951 -0.92786,0.08593c-0.30066,-0.05642 -0.61082,-0.08593 -0.92786,-0.08593c-0.24905,0 -0.49385,0.01821 -0.73314,0.05337c-0.06941,0.00869 -0.1386,0.01874 -0.20749,0.03018c-0.29667,-0.05487 -0.60253,-0.08355 -0.91508,-0.08355c-0.24905,0 -0.49386,0.01821 -0.73315,0.05337c-0.61917,0.07745 -1.21996,0.26399 -1.76685,0.57163c-0.09336,0.05251 -0.18159,0.11019 -0.26518,0.17254c-0.05014,-0.00149 -0.10046,-0.00223 -0.15096,-0.00223c-1.80346,0 -3.38391,0.95481 -4.26342,2.3865c-1.12979,0.38467 -2.07776,1.16237 -2.68095,2.17017c-0.95387,0.54747 -1.88396,1.40711 -2.73577,2.3772c-1.05941,0.38994 -1.95035,1.1283 -2.53388,2.07615c-1.57848,-1.11101 -3.01387,-2.76577 -4.25774,-3.66894c-2.80952,-2.03994 -6.48377,-2.80658 -9.19813,-5.0019c-2.1499,-1.7388 -4.10116,-4.4109 -5.96803,-6.4907c-0.05145,-0.13383 -0.10228,-0.26759 -0.15253,-0.40129c1.04795,1.07596 2.43921,1.81589 3.99687,2.04287c1.16982,0.87849 2.62381,1.39903 4.19939,1.39903c0.1307,0 0.26056,-0.00358 0.38949,-0.01065c2.60926,2.07588 6.20072,2.83321 8.90716,4.78016c1.40985,1.01422 2.65885,2.26935 3.99873,3.38943c0.2962,0.24761 0.53276,0.89449 0.88268,0.75112c0.51173,-0.20968 0.51946,-1.06319 0.90514,-1.48367c1.06811,-1.16449 2.0507,-2.43155 3.2162,-3.48064c4.88909,-4.40076 11.40931,-4.1803 17.16793,-2.93219c2.96172,0.70239 5.61886,1.8962 6.92235,5.23066c0.03503,0.08962 0.83477,5.04945 1.00566,5.7262c1.68317,6.66577 5.80073,15.76641 2.04278,22.43276c-3.31477,5.88019 -10.87264,5.65753 -13.65875,11.84145c-2.53184,3.65831 -5.35667,9.23662 -5.64094,14.15173l-1.02103,0.58345c-0.98379,0.56216 -0.68416,4.76217 -0.69093,5.39267c-0.00802,0.7471 0.04938,1.6226 0.18166,2.55283c-1.09418,-1.91653 -2.2376,-3.67699 -2.47062,-6.34569z" fill="#080066" stroke-width="0.5"/><path d="M268.6765,116.80489c-1.16508,-0.25244 -2.35654,-0.57728 -3.5506,-0.86373c-0.23741,-2.27868 -1.67671,-3.76936 -4.58269,-5.0016c0.62921,-0.01937 1.26253,0.00162 1.89825,0.06649c2.27017,0.23164 4.63061,0.98157 6.87383,1.47859c-0.01626,0.19467 -0.02455,0.3916 -0.02455,0.59047c0,1.48067 0.45972,2.85397 1.24422,3.98495c-0.68696,-0.07654 -1.3367,-0.14212 -1.85846,-0.25517z" fill="#080066" stroke-width="0.5"/><path d="M226.21425,113.74014c-0.2528,-0.27499 -0.51167,-0.581 -0.77917,-0.89862c1.24219,-0.68743 2.25325,-1.74152 2.88712,-3.01623c0.25397,0.28436 0.50189,0.56143 0.74463,0.82356c1.0233,1.10509 2.13696,2.11046 3.22441,3.14465c-1.38861,0.59366 -2.54632,1.62334 -3.30106,2.91695c-0.93587,-0.98285 -1.86093,-1.975 -2.77593,-2.97031z" fill="#080066" stroke-width="0.5"/><path d="M170.11792,115.99105c1.24291,-2.71976 2.41744,-5.86026 4.13534,-8.13922c1.91846,-2.54504 4.78878,-4.29803 7.29968,-6.18121c2.13171,-1.58777 5.03176,-3.78423 7.6972,-4.38321c2.00051,-0.44956 7.90548,-0.56042 9.82942,0.06141c2.89605,0.93603 5.18229,3.68739 7.18448,5.68263c1.54348,1.53812 3.25282,2.90734 4.86764,4.37261c0.65705,1.49598 1.82228,2.7182 3.27718,3.44819c1.64448,1.92905 3.46437,3.97671 5.79623,4.47093c2.23791,0.47432 3.18183,-0.79248 4.50463,-2.1333c1.28459,-0.52793 2.37753,-1.42689 3.1454,-2.5635c0.95343,-0.64799 1.95137,-1.23158 2.97743,-1.74652c4.7736,-3.5802 10.69557,-6.01435 16.79672,-5.43989c2.87748,0.27093 5.87198,1.16182 8.70842,1.72928c3.15206,0.6306 6.98412,0.59314 9.57605,2.78927c1.6201,1.3727 2.62395,3.23583 3.37784,5.22439c0.02162,1.43203 0.47326,2.75982 1.23152,3.85995c0.21853,0.7484 0.43475,1.48179 0.66785,2.18106c1.4514,4.35412 2.59443,8.64107 4.23681,12.97827c1.40296,1.3507 2.75889,2.97859 4.20319,4.40816c0.29823,0.33221 0.61876,0.648 0.96491,0.94469c0.12359,0.10593 0.25214,0.20404 0.38516,0.29454c0.1078,0.09022 0.21628,0.17869 0.32545,0.26524c0.83317,0.8707 1.88892,1.52666 3.07587,1.8765c2.75889,1.33386 5.86522,2.23757 8.36323,3.89581c1.7474,1.15997 3.29543,2.59547 4.95611,3.87651c0.36712,0.2832 0.66031,1.02304 1.09401,0.85906c0.63425,-0.23981 0.64383,-1.21597 1.12185,-1.69688c1.32384,-1.33184 2.54167,-2.78098 3.98622,-3.98083c6.05964,-5.03317 14.14094,-4.78104 21.27829,-3.35357c3.67081,0.80334 6.96414,2.16869 8.5797,5.98234c0.04342,0.1025 1.03463,5.7751 1.24643,6.5491c2.08616,7.62369 7.18955,18.03216 2.53187,25.65652c-4.10839,6.72521 -13.47577,6.47055 -16.92894,13.54315c-2.25167,3.00223 -4.6903,7.13507 -6.01843,11.30704c-0.40728,0.32611 -0.57143,1.32833 -0.62978,2.38399c-0.31868,1.54163 -0.44972,3.05989 -0.32646,4.49873c0.10244,1.19575 0.45956,2.20856 0.93811,3.13951c0.60269,2.35655 1.68789,4.7143 3.39112,6.01962c-0.00432,0.0798 -0.00966,0.15769 -0.01672,0.23293c-0.20641,2.19727 -0.423,6.85743 0.98413,9.68291c-0.08382,1.90165 -0.20579,3.75937 -0.20579,5.43619c0,0.85146 0.03338,5.94853 -0.1283,6.43355c-0.95477,2.86431 -4.68716,6.18112 -6.71616,8.2126c-3.76181,4.63842 -8.15821,5.90978 -12.96305,8.92379c-6.50515,4.08059 -12.24555,5.45206 -19.93616,5.45206c-3.12758,0 -6.24006,0.28533 -9.27582,-0.69962c-5.47021,-1.77481 -10.40221,-5.46339 -15.54274,-8.02878c-0.72169,-0.36165 -3.63373,-1.88096 -4.43341,-2.03837c-3.49622,-0.68822 -7.49771,0.41903 -11.05954,0.03294c-4.65795,-0.5049 -8.22487,-3.52121 -12.97886,-3.95009c-6.86372,-0.6192 -15.04957,2.65702 -21.65311,-0.20557c-2.46423,-1.06823 -5.08903,-3.73936 -7.25115,-5.36094c-5.36853,-4.14611 -7.38698,-9.67017 -10.32914,-15.55372c-1.47786,-2.95533 -3.66805,-8.51099 -6.80806,-10.18107c-1.61554,-0.85926 -3.24676,0.10891 -4.81698,0.26492c-2.73201,0.27142 -6.22515,0.27136 -8.95716,0c-2.82747,-0.28084 -6.52181,-0.58525 -9.25519,-1.16154c-3.19733,-0.6741 -6.02954,-2.90837 -8.88918,-4.37687c-7.6639,-7.7345 -10.12756,-21.93113 -2.71479,-30.71628c0.65404,-0.77514 1.68676,-1.14657 2.40881,-1.85879c1.99618,-1.96901 2.63417,-4.85638 4.25404,-7.02989c2.32985,-3.12614 6.24581,-5.75803 5.23797,-10.37839c-0.15554,-0.71307 -1.64833,-2.68582 -1.99024,-3.16939c-1.61808,-0.80904 -2.83591,-2.25906 -4.11598,-3.5374c-3.40598,-3.40138 -8.70058,-7.09515 -6.11128,-13.04316c0.46111,-1.05924 1.88503,-1.37199 2.63676,-2.24921c1.92921,-2.25124 3.12976,-5.35005 4.90707,-7.6876c1.44335,-1.89832 3.62636,-3.10532 5.31162,-4.79255c1.80439,-1.8065 3.79236,-3.41982 5.69105,-5.12694c2.3202,-2.0861 4.01326,-4.75103 6.86962,-6.2061zM169.54014,122.84545c-0.87358,0.91681 -1.72474,1.96154 -2.79764,2.92809c-1.86333,1.67864 -3.82053,3.25803 -5.59491,5.03042c-1.36545,1.36391 -3.63751,2.59685 -4.84574,4.23622c-1.8373,2.49292 -3.15938,5.77835 -5.25029,8.11274c-0.48812,0.54496 -1.46843,0.5301 -1.87761,1.13658c-0.72896,1.08044 0.33621,2.66482 1.01915,3.77492c0.75742,1.23116 3.25129,2.59116 4.15553,3.49665c1.17251,1.17412 2.30004,2.49211 3.78418,3.23418c1.30158,1.67989 3.15975,3.66233 3.65275,5.85939c1.42989,6.37239 -2.68974,10.00696 -6.04799,14.45071c-1.80721,2.39135 -2.57557,5.41504 -4.77473,7.64187c-2.0379,2.06355 -4.87885,4.70183 -5.54192,7.83539c-0.71375,3.37305 0.71207,7.39889 1.65613,10.5635c0.7721,2.5882 1.67785,4.71342 3.57981,6.58443c2.21436,1.06948 4.46852,3.07134 6.91116,3.5233c2.72401,0.50403 5.99943,2.50604 8.80235,2.78855c2.44431,0.24636 5.52743,-1.44685 7.97178,-1.6929c3.34691,-0.33691 3.82994,-1.55939 7.59758,0.26492c1.36317,0.66005 4.57628,4.66582 5.42301,5.8744c4.59336,6.55626 5.75007,15.50381 12.42628,20.30623c1.89935,1.42452 4.14423,3.80291 6.292,4.79641c1.1189,0.51757 3.55239,0.34875 4.62256,0.34656c5.166,-0.01055 10.32771,-1.0238 15.48239,-0.55213c0.22373,0.02047 6.04391,1.19688 6.20798,1.25174c2.48496,0.83099 4.06959,2.45851 6.77087,2.69834c3.72467,0.3307 7.8447,-0.70862 11.51238,0.03294c1.59086,0.32165 4.18307,1.70716 5.72395,2.47602c4.96536,2.48704 9.69248,5.96258 14.92935,7.77156c2.3834,0.8233 5.19006,0.42898 7.65313,0.42898c6.80394,0 11.55176,-1.12053 17.3075,-4.70531c2.86024,-1.78141 6.15465,-2.26183 8.63652,-3.94026c1.34362,-0.90866 2.05018,-2.56733 3.22954,-4.06489c1.35114,-1.34947 5.01474,-4.40819 5.69839,-6.45914c0.51167,-1.53501 -0.12829,-3.23438 -0.12829,-4.85241c0,-3.9015 1.16484,-10.02757 -0.36272,-13.68825c-1.54611,-3.70514 -4.28895,-5.9461 -4.7038,-10.33022c-0.67032,-7.0839 3.5425,-15.77165 7.69708,-21.3111c2.16722,-4.24685 5.31182,-6.17514 9.47306,-8.25762c2.89378,-1.44818 7.53079,-3.07846 8.27798,-6.80278c0.69029,-3.44066 0.12114,-6.94073 -0.83466,-10.38505c-0.28728,-2.28797 -1.04028,-4.82418 -1.97242,-6.18388c-0.0125,-0.03775 -0.02498,-0.07548 -0.03743,-0.1132c0.08563,-0.36667 0.13092,-0.74884 0.13092,-1.14159c0,-1.40179 -0.57686,-2.66885 -1.50615,-3.57673c-0.85623,-3.88983 -0.69677,-6.73425 -5.32916,-7.67164c-1.09075,-0.59284 -2.39407,-0.8312 -3.64073,-0.68082c-3.16694,-0.50165 -5.91411,-0.51279 -9.31081,1.0072c-1.486,0.66497 -3.28846,0.80959 -4.50095,1.89597c-1.8506,1.65812 -4.70964,6.27271 -7.30649,6.73684c-3.74829,0.66993 -7.09998,-3.64609 -9.75022,-5.42179c-3.48217,-2.33309 -8.03611,-3.20991 -11.40035,-5.72071c-2.66463,-1.98867 -5.08307,-5.04477 -7.39691,-7.42345c-1.96296,-4.71193 -3.20603,-9.35013 -4.79197,-14.10804c-0.45545,-1.36639 -0.80041,-3.09196 -1.32045,-4.73762c-0.10105,-1.30783 -0.58286,-2.36059 -1.49303,-3.25343c-0.27581,-0.39238 -0.58592,-0.74911 -0.93809,-1.05827c-0.69979,-0.61433 -1.75711,-0.94418 -2.89949,-1.15143c-0.33301,-0.12645 -0.68272,-0.25047 -1.04942,-0.3727c-0.50318,-0.16773 -1.01676,-0.10918 -1.53364,0.04661c-0.68969,-0.0706 -1.33447,-0.14046 -1.87034,-0.2476c-2.69021,-0.53789 -5.49392,-1.36313 -8.22052,-1.65651c-5.00463,-0.53849 -9.81401,1.82145 -13.67538,4.71748c-0.39819,0.19833 -0.78373,0.41878 -1.15937,0.65586c-1.04465,0.44456 -1.95909,1.13573 -2.67024,2.00041c-3.05564,2.54415 -5.86857,5.31811 -10.37205,4.44357c-3.94957,-0.76698 -3.52353,-1.5846 -6.24392,-3.95204c-3.55098,-3.09027 -6.97235,-6.38664 -10.28713,-9.71393c-1.46912,-1.47467 -3.1037,-3.72938 -5.23008,-4.47474c-1.33037,-0.46634 -5.69075,-0.24614 -7.09952,0.06141c-1.95821,0.4275 -4.30889,2.35479 -5.84596,3.51696c-2.04145,1.53109 -4.693,3.02255 -6.24347,5.10475c-0.9782,1.31368 -1.75891,2.9476 -2.48447,4.60141c0.74049,0.19117 1.82777,0.75258 1.82777,2.40129c0,2.5 -2.5,2.5 -2.5,2.5c-0.58952,-0.02483 -1.12222,0.01284 -1.61002,0.10294l-0.6683,1.33658c0,0 -1.11144,2.22288 -3.33431,1.12786z" fill="#000000" stroke-width="0.5"/><path d="M222.73534,146.19666c0,-1.38071 1.11929,-2.5 2.5,-2.5c1.38071,0 2.5,1.11929 2.5,2.5c0,1.38071 -1.11929,2.5 -2.5,2.5c-1.38071,0 -2.5,-1.11929 -2.5,-2.5z" fill="#ffffff" stroke-width="0.5"/><path d="M260.2946,182.46077c0,-1.38071 1.11929,-2.5 2.5,-2.5c1.38071,0 2.5,1.11929 2.5,2.5c0,1.38071 -1.11929,2.5 -2.5,2.5c-1.38071,0 -2.5,-1.11929 -2.5,-2.5z" fill="#ffffff" stroke-width="0.5"/><path d="M216.2596,185.05107c0,-1.38071 1.11929,-2.5 2.5,-2.5c1.38071,0 2.5,1.11929 2.5,2.5c0,1.38071 -1.11929,2.5 -2.5,2.5c-1.38071,0 -2.5,-1.11929 -2.5,-2.5z" fill="#ffffff" stroke-width="0.5"/><path d="M236.98195,159.14813c0,-1.38071 1.11929,-2.5 2.5,-2.5c1.38071,0 2.5,1.11929 2.5,2.5c0,1.38071 -1.11929,2.5 -2.5,2.5c-1.38071,0 -2.5,-1.11929 -2.5,-2.5z" fill="#ffffff" stroke-width="0.5"/><path d="M274.54121,212.24915c0,-1.38071 1.11929,-2.5 2.5,-2.5c1.38071,0 2.5,1.11929 2.5,2.5c0,1.38071 -1.11929,2.5 -2.5,2.5c-1.38071,0 -2.5,-1.11929 -2.5,-2.5z" fill="#ffffff" stroke-width="0.5"/><path d="M240.86739,220.02003c0,-1.38071 1.11929,-2.5 2.5,-2.5c1.38071,0 2.5,1.11929 2.5,2.5c0,1.38071 -1.11929,2.5 -2.5,2.5c-1.38071,0 -2.5,-1.11929 -2.5,-2.5z" fill="#ffffff" stroke-width="0.5"/><path d="M321.1665,155.26269c0,-1.38071 1.11929,-2.5 2.5,-2.5c1.38071,0 2.5,1.11929 2.5,2.5c0,1.38071 -1.11929,2.5 -2.5,2.5c-1.38071,0 -2.5,-1.11929 -2.5,-2.5z" fill="#ffffff" stroke-width="0.5"/><path d="M290.08297,181.16563c0,-1.38071 1.11929,-2.5 2.5,-2.5c1.38071,0 2.5,1.11929 2.5,2.5c0,1.38071 -1.11929,2.5 -2.5,2.5c-1.38071,0 -2.5,-1.11929 -2.5,-2.5z" fill="#ffffff" stroke-width="0.5"/><path d="M252.52371,120.29372c0,-1.38071 1.11929,-2.5 2.5,-2.5c1.38071,0 2.5,1.11929 2.5,2.5c0,1.38071 -1.11929,2.5 -2.5,2.5c-1.38071,0 -2.5,-1.11929 -2.5,-2.5z" fill="#ffffff" stroke-width="0.5"/><path d="M240.93349,171.55641c-6.36649,-8.91832 -4.29782,-21.30911 4.6205,-27.6756c8.91832,-6.36649 -1.17257,12.63754 5.19392,21.55586c6.36649,8.91832 26.77951,4.37375 17.86119,10.74024c-8.91832,6.36649 -21.30911,4.29782 -27.6756,-4.6205z" fill="#dbdbdb" stroke-width="0"/><path d="M240.21645,160.12347c0,-0.79692 0.64602,-1.44295 1.44294,-1.44295c0.79692,0 1.44295,0.64603 1.44295,1.44295c0,0.79692 -0.64603,1.44294 -1.44295,1.44294c-0.79692,0 -1.44294,-0.64602 -1.44294,-1.44294z" fill="url(#color-1)" stroke-width="0"/><path d="M256.11839,173.32517c0,1.96744 -1.87638,3.56236 -4.19101,3.56236c-2.31464,0 -4.19102,-1.59492 -4.19102,-3.56236c0,-1.96744 1.87638,-3.56236 4.19102,-3.56236c2.31464,0 4.19101,1.59492 4.19101,3.56237z" fill="url(#color-2)" stroke-width="0"/><path d="M247.94591,149.43638c0,1.27305 -1.07892,2.30506 -2.40983,2.30506c-1.33092,0 -2.40984,-1.03201 -2.40984,-2.30506c0,-1.27305 1.07892,-2.30506 2.40984,-2.30506c1.33092,0 2.40983,1.03201 2.40983,2.30506z" fill="url(#color-3)" stroke-width="0"/><path d="" fill="#000000" stroke-width="0.5"/><g stroke-width="0.5"><path d="M306.12699,95.04861c0,-0.0112 0.00018,-0.02222 0.00053,-0.03306c-1.38713,0.0308 -2.77897,0.14664 -4.12152,0.31383c-0.23148,0.04463 -0.4001,-0.01232 -0.52095,-0.10284c-0.13189,-0.08242 -0.24884,-0.22496 -0.28754,-0.46982l-0.12765,-0.59015c0,-4.59175 -0.10273,-9.25196 0.22164,-13.83281c-0.07191,-0.10752 -0.11668,-0.25296 -0.10212,-0.44955c0.05182,-0.69963 0.75146,-0.64781 0.75146,-0.64781c3.69545,0.27469 7.41261,0.12302 11.10897,0.35247l0.82637,0.05902c0,0 0.69976,0.04998 0.64978,0.74975c-0.00274,0.03834 -0.00743,0.07443 -0.01385,0.10839c0.19408,0.41758 0.33697,0.86232 0.41771,1.31399l0.00955,0.40935c0,0 0,0.04404 -0.01104,0.11006c0.00166,0.00995 0.0032,0.02007 0.0046,0.03037c0.09479,0.69511 -0.60033,0.7899 -0.60033,0.7899c-2.24643,0.30633 -4.55063,0.43448 -6.74588,0.98515l-0.09662,0.00703c-0.19656,0.13152 -0.42636,0.13152 -0.42636,0.13152c-0.12712,0 -0.25424,0 -0.38136,0c0.03071,0.10198 0.04937,0.23153 0.01593,0.36573c0.00024,0.0014 0.00035,0.00212 0.00035,0.00212c0.0381,0.2518 0.0762,0.50359 0.1143,0.75539c0.69147,-0.09969 1.37719,-0.18547 2.05738,-0.38241l0.4089,-0.02267c0.00267,-0.00029 0.00535,-0.00057 0.00804,-0.00083c0.26165,-0.02616 0.43503,0.05555 0.54956,0.16794c0.11609,0.09682 0.21028,0.24831 0.22082,0.48537c0.09055,0.89938 0.25468,1.74552 0.40306,2.63439l0.09115,0.24631c0,0 0.02937,0.0881 0.03468,0.21088c0.02905,0.20967 -0.02764,0.3646 -0.11344,0.4774c0.48618,-0.10257 0.97606,-0.18211 1.4719,-0.22469l0.1815,-0.00188c0.06782,-0.00711 0.14332,-0.005 0.22731,0.009c0.692,0.11533 0.57667,0.80733 0.57667,0.80733c-0.32409,1.944 -0.69975,3.89499 -0.24364,5.84252l0.01797,0.56938c0,0 0,0.01387 -0.00195,0.03771c0.04115,0.16512 0.02163,0.36907 -0.16065,0.58782c-0.44912,0.53894 -0.98806,0.08982 -0.98806,0.08982c-1.27872,-1.09946 -2.9437,-1.05989 -4.54866,-1.19231l-0.17696,0.00242c0,0 -0.70155,0 -0.70155,-0.70155zM311.39992,90.47301c-1.81224,0.26951 -3.57354,0.99657 -5.36525,1.38052c0,0 -0.68597,0.14699 -0.83297,-0.53898c-0.02523,-0.11775 -0.02592,-0.21961 -0.00975,-0.30758c-0.00582,-0.04587 -0.00582,-0.07463 -0.00582,-0.07463l0.00949,0.05622c0,0 0,0 0,0c-0.07227,-0.44236 -0.18325,-0.87969 -0.32631,-1.30446c0,0 -0.22185,-0.66555 0.4437,-0.8874c0.14669,-0.0489 0.27184,-0.05468 0.37779,-0.03399l0.01992,0.00041c1.18989,0.10275 2.22748,-0.16389 3.3308,-0.45368c-0.10314,-0.60928 -0.20961,-1.20266 -0.29394,-1.8091c-0.79026,0.17422 -1.58215,0.25196 -2.38638,0.39713c-0.06873,0.0204 -0.14766,0.03211 -0.2383,0.03211c-0.2087,0 -0.35531,-0.06208 -0.45831,-0.14931c-0.10472,-0.08516 -0.19276,-0.21782 -0.23122,-0.42295c-0.01722,-0.09183 -0.01991,-0.17373 -0.01165,-0.2467l0.00167,-0.53474c-0.03716,-0.23709 -0.07433,-0.47418 -0.11149,-0.71127c0,0 -0.01751,-0.11382 0.00777,-0.25632l-0.13354,-0.32078c0,-0.23522 0,-0.47043 0,-0.70565c0,0 0,-0.70155 0.70155,-0.70155c0.04818,0 0.09305,0.00331 0.13483,0.00947c0.06061,-0.00947 0.10038,-0.00947 0.10038,-0.00947c0.1872,0 0.52339,0 0.77141,0c0.19137,-0.11761 0.40466,-0.11761 0.40466,-0.11761l-0.05254,0.02095c2.04224,-0.50895 4.1672,-0.67135 6.26286,-0.93183c-0.06384,-0.29354 -0.17003,-0.58036 -0.31,-0.84563l-0.24322,-0.01738c-3.42153,-0.21524 -6.85921,-0.10084 -10.28303,-0.29838c-0.12887,1.90073 -0.18428,3.81512 -0.20541,5.73214c0.07533,-0.01404 0.12703,-0.01404 0.12703,-0.01404c0.23522,0 0.47043,0 0.70565,0h0.47043c0,0 0.70155,0 0.70155,0.70155c0,0.70155 -0.70155,0.70155 -0.70155,0.70155c-0.23522,0 -0.94086,0 -1.17608,0c0,0 -0.05623,0 -0.13684,-0.01592c-0.0074,2.02637 0.01301,4.05276 0.01498,6.06616c2.24333,-0.24797 4.59004,-0.34363 6.82495,-0.15923l0.35337,-0.00242c0,0 0.70155,0 0.70155,0.70155c0,0.15362 -0.03364,0.2736 -0.08618,0.36731c0.3047,0.08161 0.60362,0.18251 0.89635,0.30953c-0.19428,-1.54046 -0.00888,-3.06649 0.23709,-4.60559zM306.46399,90.18038c0.00949,0.04114 0.01873,0.08233 0.02771,0.12358c0.21922,-0.05617 0.43791,-0.1155 0.6563,-0.1767c-0.22512,0.02648 -0.45262,0.04487 -0.68401,0.05312z" fill="#000000"/><path d="M311.17309,95.1018c-0.29273,-0.12702 -0.59392,-0.22705 -0.89862,-0.30866c0.05254,-0.09371 0.08686,-0.21392 0.08686,-0.36754c0,-0.70155 -0.70322,-0.701 -0.70322,-0.701l-0.35477,0.00278c-2.23491,-0.18439 -4.6044,-0.09483 -6.84773,0.15315c-0.00198,-2.0134 -0.03056,-4.05884 -0.02315,-6.08521c0.08062,0.01592 0.13684,0.01598 0.13684,0.01598c0.23522,0 0.94086,-0.0001 1.17608,-0.0001c0,0 0.70214,-0.00502 0.70214,-0.70657c0,-0.70155 -0.65285,-0.6877 -0.65285,-0.6877l-0.47018,-0.00076c-0.23522,0 -0.47016,-0.00092 -0.70537,-0.00092c0,0 -0.10067,-0.0132 -0.176,0.00084c0.02114,-1.91702 0.08599,-3.84531 0.21486,-5.74604c3.42382,0.19754 6.89139,0.08298 10.31292,0.29822l0.24371,0.01774c0.13997,0.26527 0.21371,0.59099 0.27754,0.88453c-2.09566,0.26047 -4.19986,0.42927 -6.24211,0.93823l0.05227,-0.02091c0,0 -0.21126,-0.00036 -0.40263,0.11725c-0.24803,0 -0.58077,-0.00101 -0.76797,-0.00101c0,0 -0.03935,-0.00016 -0.09995,0.00931c-0.04179,-0.00616 -0.08613,-0.00969 -0.1343,-0.00969c-0.70155,0 -0.69752,0.69942 -0.69752,0.69942c0,0.23522 0.00175,0.46919 0.00175,0.7044l0.13397,0.32044c-0.02528,0.1425 -0.00696,0.25564 -0.00696,0.25564c0.03716,0.23709 0.07636,0.47217 0.11352,0.70926l0.00034,0.53219c-0.00827,0.07298 -0.00466,0.15346 0.01255,0.2453c0.03846,0.20512 0.12764,0.33566 0.23236,0.42082c0.103,0.08723 0.20416,0.12683 0.41286,0.12683c0.09064,0 0.17047,-0.01331 0.2392,-0.03371c0.80424,-0.14516 1.63004,-0.23192 2.42031,-0.40614c0.08433,0.60644 0.20207,1.23145 0.30521,1.84074c-1.10332,0.28978 -2.18809,0.55613 -3.37798,0.45338l-0.01995,-0.00049c-0.10596,-0.02069 -0.18342,-0.03218 -0.33012,0.01672c-0.66555,0.22185 -0.44574,0.88291 -0.44574,0.88291c0.14307,0.42477 0.24903,0.85593 0.3213,1.29829c0,0 -0.03388,0.03774 -0.03388,0.03774l-0.0097,-0.0564c0,0 0.03405,-0.00883 0.03987,0.03704c-0.01617,0.08797 -0.01641,0.18904 0.00882,0.30679c0.14699,0.68597 0.82817,0.53591 0.82817,0.53591c1.79172,-0.38395 3.52163,-1.10356 5.33387,-1.37307c-0.24596,1.5391 -0.4009,3.10364 -0.20662,4.6441z" data-paper-data="{&quot;noHover&quot;:false,&quot;origItem&quot;:[&quot;Path&quot;,{&quot;applyMatrix&quot;:true,&quot;segments&quot;:[[[311.39992,90.47301],[-0.24596,1.5391],[-1.81224,0.26951]],[[306.03467,91.85353],[1.79172,-0.38395],[0,0]],[[305.20171,91.31455],[0.14699,0.68597],[-0.02523,-0.11775]],[[305.19196,91.00697],[-0.01617,0.08797],[-0.00582,-0.04587]],[305.18613,90.93234],[[305.19563,90.98856],[0,0],[0,0]],[[305.19563,90.98856],[0,0],[-0.07227,-0.44236]],[[304.86931,89.6841],[0.14307,0.42477],[0,0]],[[305.31301,88.7967],[-0.66555,0.22185],[0.14669,-0.0489]],[[305.6908,88.76271],[-0.10596,-0.02069],[0,0]],[[305.71072,88.76312],[0,0],[1.18989,0.10275]],[[309.04152,88.30945],[-1.10332,0.28978],[-0.10314,-0.60928]],[[308.74758,86.50035],[0.08433,0.60644],[-0.79026,0.17422]],[[306.3612,86.89748],[0.80424,-0.14516],[-0.06873,0.0204]],[[306.12289,86.92958],[0.09064,0],[-0.2087,0]],[[305.66458,86.78027],[0.103,0.08723],[-0.10472,-0.08516]],[[305.43336,86.35732],[0.03846,0.20512],[-0.01722,-0.09183]],[[305.42172,86.11062],[-0.00827,0.07298],[0,0]],[[305.42339,85.57588],[0,0],[-0.03716,-0.23709]],[[305.3119,84.86461],[0.03716,0.23709],[0,0]],[[305.31967,84.60829],[-0.02528,0.1425],[0,0]],[[305.18613,84.28751],[0,0],[0,-0.23522]],[[305.18613,83.58186],[0,0.23522],[0,0]],[[305.88768,82.88032],[-0.70155,0],[0.04818,0]],[[306.02251,82.88979],[-0.04179,-0.00616],[0.06061,-0.00947]],[[306.12289,82.88032],[0,0],[0.1872,0]],[[306.89431,82.88032],[-0.24803,0],[0.19137,-0.11761]],[307.29897,82.76271],[[307.24643,82.78365],[0,0],[2.04224,-0.50895]],[[313.50929,81.85183],[-2.09566,0.26047],[-0.06384,-0.29354]],[[313.19929,81.0062],[0.13997,0.26527],[0,0]],[[312.95607,80.98883],[0,0],[-3.42153,-0.21524]],[[302.67304,80.69044],[3.42382,0.19754],[-0.12887,1.90073]],[[302.46763,86.42258],[0.02114,-1.91702],[0.07533,-0.01404]],[[302.59466,86.40855],[0,0],[0.23522,0]],[[303.30031,86.40855],[-0.23522,0],[0,0]],[303.77074,86.40855],[[304.47229,87.11009],[0,-0.70155],[0,0.70155]],[[303.77074,87.81164],[0,0],[-0.23522,0]],[[302.59466,87.81164],[0.23522,0],[0,0]],[[302.45782,87.79572],[0.08062,0.01592],[-0.0074,2.02637]],[[302.4728,93.86188],[-0.00198,-2.0134],[2.24333,-0.24797]],[[309.29776,93.70265],[-2.23491,-0.18439],[0,0]],[309.65112,93.70022],[[310.35267,94.40177],[0,-0.70155],[0,0.15362]],[[310.26649,94.76907],[0.05254,-0.09371],[0.3047,0.08161]],[[311.16284,95.07861],[-0.29273,-0.12702],[-0.19428,-1.54046]]],&quot;closed&quot;:true}]}" fill="#ffffff"/><path d="M330.06168,93.35733l0.07448,-0.52135c-0.18276,-0.2068 -0.18276,-0.49295 -0.18276,-0.49295l0.00705,-0.3057c-0.086,-0.60249 -0.15637,-1.20641 -0.22852,-1.8104c-2.23967,0.24754 -4.40133,0.48938 -6.66917,0.48938c0,0 -0.70155,0 -0.70155,-0.70155c0,-0.04172 0.00248,-0.08095 0.00715,-0.11785c-0.00715,-0.05164 -0.00715,-0.08461 -0.00715,-0.08461l0.02699,-0.21219c-0.20248,-0.71415 -0.48786,-1.36028 -0.7801,-2.04219c0,0 -0.18022,-0.42051 0.09,-0.7279c-0.04069,-0.16435 -0.08093,-0.32882 -0.12571,-0.49158c-0.27904,-1.01418 -0.88285,-1.89059 -1.19959,-2.88368c-0.04919,-0.15424 -0.30658,-1.30944 -0.44871,-1.95031c-0.15935,0 -0.33761,0 -0.49754,0c-0.20782,0.20246 -0.51419,0.20246 -0.51419,0.20246c-0.31519,0 -0.78741,0 -1.22108,0c0.04054,2.77555 1.34595,5.52139 0.6905,8.36181c-0.12281,0.53219 -0.41504,1.02158 -0.49554,1.56178c-0.09606,0.64462 0.10722,1.37528 0.10801,2.02851c0.00024,0.20129 0.13648,1.01901 -0.00107,1.41543c2.88771,-0.57553 5.89495,-0.5384 8.795,-1.06109c1.09984,-0.19823 2.16415,-0.44679 3.26992,-0.61527c0.00145,-0.0258 0.00359,-0.04073 0.00359,-0.04073zM331.5519,92.84715l-0.10123,0.7086c0,0 -0.03143,0.22003 -0.18277,0.39471c0.02602,0.42647 -0.40045,0.6397 -0.40045,0.6397l-0.41699,0.16824c-1.15933,0.16562 -2.26414,0.42978 -3.41236,0.63557c-2.95907,0.53035 -6.02089,0.50635 -8.96767,1.08896c-0.4246,-0.06735 -0.96227,0.09419 -1.2738,-0.20206c-0.29519,-0.28072 -0.16198,-0.79964 -0.20548,-1.20467c-0.07343,-0.68375 0.05165,-1.39017 0.00176,-2.07608c-0.1451,-1.99488 0.61207,-3.74508 0.50574,-5.7762c-0.10136,-1.93597 -0.79944,-3.78971 -0.81119,-5.71242c0,0 0,-0.10711 0.04185,-0.23762c-0.02637,-0.07556 -0.04185,-0.1643 -0.04185,-0.26852c0,-0.70155 0.70155,-0.70155 0.70155,-0.70155c0.50347,0 1.00693,0 1.5104,0c0.20782,-0.20246 0.51419,-0.20246 0.51419,-0.20246c0.2362,0 0.4724,0 0.7086,0h0.60738c0,0 0.40629,0 0.60049,0.30919c0.22446,0.16207 0.28681,0.44263 0.28681,0.44263c0.31511,1.41805 0.75031,2.60037 1.28173,3.93886c0.34254,0.86276 0.43945,1.68662 0.80407,2.51687l0.05672,0.47881c0,0 0,0.10184 -0.0388,0.22792c0.15522,0.39053 0.29761,0.78492 0.41673,1.19902l0.00413,0.09137c2.03489,-0.04257 3.9944,-0.26748 6.0262,-0.49466l0.54879,-0.00403c0.23696,-0.01708 0.39836,0.06038 0.50776,0.16556c0.11735,0.09504 0.21386,0.24455 0.22707,0.47976c0.0991,0.7958 0.18467,1.59233 0.29818,2.38625l0.00548,0.39176c0.25104,0.23807 0.19698,0.61651 0.19698,0.61651z" fill="#000000"/><path d="M330.07759,93.41427c-1.10577,0.16848 -2.1782,0.42349 -3.27804,0.62172c-2.90005,0.5227 -5.93535,0.48201 -8.82305,1.05754c0.13755,-0.39642 -0.00079,-1.21621 -0.00104,-1.4175c-0.00079,-0.65322 -0.20747,-1.38863 -0.11141,-2.03325c0.0805,-0.54021 0.37078,-1.03413 0.49358,-1.56631c0.65545,-2.84042 -0.64324,-5.61245 -0.68378,-8.388c0.43367,0 0.90797,-0.00176 1.22316,-0.00176c0,0 0.30772,-0.00096 0.51554,-0.20342c0.15993,0 0.36503,0.04301 0.52438,0.04301c0.14213,0.64086 0.40164,1.79466 0.45084,1.94891c0.31674,0.9931 0.92504,1.86528 1.20408,2.87946c0.04478,0.16276 0.08672,0.32494 0.12741,0.48929c-0.27022,0.30739 -0.087,0.72162 -0.087,0.72162c0.29225,0.68191 0.57269,1.30384 0.77517,2.01799l-0.02812,0.21096c0,0 -0.00053,0.03244 0.00662,0.08408c-0.00467,0.0369 -0.00776,0.07556 -0.00776,0.11728c0,0.70155 0.69298,0.69647 0.69298,0.69647c2.26783,0 4.39705,-0.22592 6.63672,-0.47346c0.07215,0.60399 0.18814,1.22928 0.27413,1.83177l-0.00755,0.30648c0,0 -0.00058,0.28699 0.18218,0.49378l-0.07539,0.52252c0,0 -0.0022,0.01502 -0.00365,0.04081z" data-paper-data="{&quot;noHover&quot;:false,&quot;origItem&quot;:[&quot;Path&quot;,{&quot;applyMatrix&quot;:true,&quot;segments&quot;:[[330.06168,93.35733],[[330.13616,92.83597],[0,0],[-0.18276,-0.2068]],[329.9534,92.34302],[[329.96045,92.03732],[0,0],[-0.086,-0.60249]],[[329.73192,90.22692],[0.07215,0.60399],[-2.23967,0.24754]],[[323.06276,90.7163],[2.26783,0],[0,0]],[[322.36121,90.01475],[0,0.70155],[0,-0.04172]],[[322.36836,89.8969],[-0.00467,0.0369],[-0.00715,-0.05164]],[322.36121,89.81229],[[322.38821,89.6001],[0,0],[-0.20248,-0.71415]],[[321.6081,87.55791],[0.29225,0.68191],[0,0]],[[321.6981,86.83001],[-0.27022,0.30739],[-0.04069,-0.16435]],[[321.57239,86.33844],[0.04478,0.16276],[-0.27904,-1.01418]],[[320.3728,83.45475],[0.31674,0.9931],[-0.04919,-0.15424]],[[319.92409,81.50445],[0.14213,0.64086],[-0.15935,0]],[[319.42655,81.50445],[0.15993,0],[-0.20782,0.20246]],[[318.91237,81.7069],[0,0],[-0.31519,0]],[[317.69128,81.7069],[0.43367,0],[0.04054,2.77555]],[[318.38178,90.06871],[0.65545,-2.84042],[-0.12281,0.53219]],[[317.88624,91.63049],[0.0805,-0.54021],[-0.09606,0.64462]],[[317.99425,93.659],[-0.00079,-0.65322],[0.00024,0.20129]],[[317.99317,95.07443],[0.13755,-0.39642],[2.88771,-0.57553]],[[326.78817,94.01333],[-2.90005,0.5227],[1.09984,-0.19823]],[[330.05809,93.39806],[-1.10577,0.16848],[0.00145,-0.0258]]],&quot;closed&quot;:true}]}" fill="#ffffff"/><path d="M338.30701,94.39188l-0.73001,0.23141c-0.85564,0.11377 -1.43193,0.39763 -2.32208,0.4119c-0.00274,0.00006 -0.00418,0.00007 -0.00418,0.00007c-0.4724,0 -1.55218,0 -2.02458,0c0,0 -0.70155,0 -0.70155,-0.70154c0,-0.02173 0.00067,-0.04279 0.00198,-0.06319c-0.00198,-0.02404 -0.00198,-0.03804 -0.00198,-0.03804v-0.30369c0,-0.69323 0.00576,-1.34 -0.09418,-2.0266c0,0 -0.03666,-0.2566 0.09057,-0.48014c-0.42613,-3.02956 -0.46562,-6.09804 -0.9004,-9.13663c0,0 -0.03848,-0.26935 0.10023,-0.49653c-0.00396,-0.03426 -0.00605,-0.07049 -0.00605,-0.10883c0,-0.70155 0.70155,-0.70155 0.70155,-0.70155c1.35057,0 2.6239,-0.00847 3.96204,0.212l0.60738,0.10123c0,0 0.11571,0.01928 0.24462,0.0894c0.55426,0.01677 0.63823,0.60462 0.63823,0.60462c0.36388,2.60117 1.01934,5.02742 1.01934,7.6914l-0.0993,0.55653c0.01388,0.93281 0.09781,1.85054 0.0993,2.78403v0.60738c0,0 0,0.39438 -0.2957,0.59175c-0.13419,0.12467 -0.28522,0.17502 -0.28522,0.17502zM337.37857,93.2343l0.10627,-0.03804v-0.17853c0.0018,-1.01611 -0.10123,-2.0172 -0.10123,-3.03687c0,0 0,-0.19279 0.10106,-0.37624c-0.01097,-2.41048 -0.56529,-4.62215 -0.93555,-6.96319l-0.40142,-0.0669c-1.04792,-0.17685 -2.0553,-0.19295 -3.09736,-0.19337c0.39907,2.96745 0.448,5.96226 0.87032,8.9177l0.00705,0.70659c0,0 0,0.11576 -0.04702,0.25323c0.01049,0.12756 0.01864,0.25455 0.02497,0.38142c0.01439,0.056 0.02205,0.11469 0.02205,0.17518c0,0.04113 -0.00354,0.08143 -0.01033,0.12062c0.00694,0.23042 0.00923,0.46161 0.00997,0.69627c0.23867,0 0.47734,0 0.71602,0h0.60738c0,0 0.00239,0 0.0069,0.00014c0.78109,0.01493 1.34229,-0.28081 2.12092,-0.39801z" fill="#000000"/><path d="M335.2576,93.65766c-0.00451,-0.00014 -0.00694,-0.00014 -0.00694,-0.00014l-0.6101,-0.00015c-0.23867,0 -0.48042,-0.00054 -0.7191,-0.00054c-0.00075,-0.23467 -0.00386,-0.46607 -0.0108,-0.69649c0.00679,-0.03919 0.01022,-0.07952 0.01022,-0.12065c0,-0.06049 -0.008,-0.11929 -0.02239,-0.17528c-0.00633,-0.12688 -0.0152,-0.25409 -0.02568,-0.38164c0.04702,-0.13747 0.04683,-0.25329 0.04683,-0.25329l-0.0086,-0.70716c-0.42232,-2.95544 -0.47094,-5.99731 -0.87001,-8.96476c1.04206,0.00043 2.0628,0.01509 3.11072,0.19193l0.40326,0.06727c0.37026,2.34104 0.93927,4.59219 0.95024,7.00267c-0.10106,0.18345 -0.10309,0.37871 -0.10309,0.37871c0,1.01967 0.09474,2.02666 0.09295,3.04277l-0.0003,0.17866l-0.10674,0.03823c-0.77863,0.1172 -1.34937,0.41478 -2.13046,0.39985z" data-paper-data="{&quot;noHover&quot;:false,&quot;origItem&quot;:[&quot;Path&quot;,{&quot;applyMatrix&quot;:true,&quot;segments&quot;:[[[337.37857,93.2343],[-0.77863,0.1172],[0,0]],[337.48484,93.19626],[[337.48484,93.01773],[0,0],[0.0018,-1.01611]],[[337.38361,89.98086],[0,1.01967],[0,0]],[[337.48468,89.60462],[-0.10106,0.18345],[-0.01097,-2.41048]],[[336.54912,82.64143],[0.37026,2.34104],[0,0]],[[336.1477,82.57453],[0,0],[-1.04792,-0.17685]],[[333.05034,82.38116],[1.04206,0.00043],[0.39907,2.96745]],[[333.92065,91.29885],[-0.42232,-2.95544],[0,0]],[333.92771,92.00544],[[333.88068,92.25867],[0.04702,-0.13747],[0.01049,0.12756]],[[333.90566,92.64009],[-0.00633,-0.12688],[0.01439,0.056]],[[333.92771,92.81528],[0,-0.06049],[0,0.04113]],[[333.91738,92.93589],[0.00679,-0.03919],[0.00694,0.23042]],[[333.92735,93.63217],[-0.00075,-0.23467],[0.23867,0]],[[334.64337,93.63217],[-0.23867,0],[0,0]],[335.25074,93.63217],[[335.25765,93.6323],[-0.00451,-0.00014],[0.78109,0.01493]]],&quot;closed&quot;:true}]}" fill="#ffffff"/><path d="M349.53287,85.47528c-0.05466,-0.80966 -0.29085,-1.54782 -0.37597,-2.34477c-0.12849,-0.10207 -0.23317,-0.26839 -0.23317,-0.53938c0,-0.70155 0.70155,-0.70155 0.70155,-0.70155c0.06177,0 0.13046,0 0.20246,0c0.20331,0 0.43294,0 0.60738,0c0,0 0.01895,0 0.05061,0.00311c0.03167,-0.00311 0.05061,-0.00311 0.05061,-0.00311h0.20246c0.50265,0.00117 1.00634,0.03718 1.5042,0.10657c0.09098,0.01125 0.17657,0.03993 0.25331,0.08258c0.18726,0.09455 0.4073,0.2928 0.35646,0.69596c-0.00154,0.01314 -0.00343,0.02616 -0.00569,0.03907c-0.02086,0.12632 -0.06194,0.22539 -0.11487,0.30298c0.01572,0.05834 0.02411,0.11969 0.02411,0.183c0,0.02941 -0.00181,0.0584 -0.00532,0.08686l0.19675,0.70031c0.1499,1.89545 0.20768,3.7883 0.39995,5.68313c0.14384,1.41752 0.41739,2.7311 0.42091,4.15877c0,0 0,0.01701 -0.00265,0.04574c-0.00523,0.14181 -0.04621,0.32627 -0.19765,0.46622c-0.05136,0.05328 -0.1159,0.10022 -0.19698,0.13406c-0.00031,0.48844 -0.51645,0.63591 -0.51645,0.63591l-0.75502,0.21402c-0.3367,0.03309 -0.68072,0.17653 -1.01011,0.09928c-0.99471,-0.23329 -2.12998,-1.66718 -2.51591,-2.53761c-0.25807,-0.58205 -0.38101,-1.21882 -0.86184,-1.69966c-0.135,-0.135 -0.28466,-0.25544 -0.44148,-0.36951c-0.0172,0.4437 -0.02384,0.90343 0.0946,1.30369c0.13555,0.45807 0.27894,0.92495 0.31912,1.40018c0.06701,0.09902 0.11185,0.23154 0.11185,0.4089c0,0.70155 -0.70155,0.70155 -0.70155,0.70155h-0.50614c-0.69323,0 -1.34,-0.00576 -2.0266,0.09418c0,0 -0.11036,0.01577 -0.24939,-0.00927c-0.01754,0.0035 -0.03563,0.0066 -0.0543,0.00927c-0.6945,0.09921 -0.79371,-0.59528 -0.79371,-0.59528c-0.06956,-0.51039 -0.31133,-0.98518 -0.40071,-1.49248c-0.05629,-0.3195 0.0269,-0.65074 -0.00842,-0.97323c-0.31776,-2.90136 -1.30268,-5.71062 -0.58926,-8.63517l-0.02095,-0.13354c0,0 0,-0.52836 0.45853,-0.66802c-0.01685,-0.0169 -0.03372,-0.03378 -0.05059,-0.05066c0,0 -0.49607,-0.49607 0,-0.99213c0.49607,-0.49607 0.99214,0 0.99214,0c2.03055,2.03055 3.87066,4.17485 5.6955,6.38353c-0.1364,-0.69178 0.03967,-1.49081 -0.00776,-2.19348zM345.99111,88.97864c0.46737,-0.46737 0.93475,-0.05407 0.98725,-0.00469c0.07017,0.0436 0.12454,0.09809 0.16667,0.15636c0.49535,0.43259 1.09779,0.70298 1.55911,1.16431c0.92405,0.92405 1.01185,2.2306 1.92335,3.1381c0.45334,0.45135 0.55004,0.77938 1.17974,0.61978l0.53525,-0.1543l-0.02147,-0.09798c-0.25544,-0.60294 -0.58757,-1.16699 -0.9631,-1.70652c0.08441,0.00884 0.6917,0.04954 0.78398,-0.59643c0.03102,-0.2171 -0.01553,-0.37603 -0.09418,-0.49194v-0.21465c0,-0.71657 0.05153,-1.46126 -0.00176,-2.17555c-0.05496,-0.73663 -0.3101,-1.33895 -0.30192,-2.07608c0,0 0,-0.12692 -0.05398,-0.27279c-0.03726,-0.6436 -0.07539,-1.28737 -0.12333,-1.93158l-0.18649,-0.63977c0,0 -0.03859,-0.13505 -0.0208,-0.30156c-0.00354,-0.02656 -0.0056,-0.0536 -0.00608,-0.08102c-0.20464,-0.01361 -0.40973,-0.02022 -0.61454,-0.01967h-0.15922c0.09555,0.69876 0.29862,1.35613 0.35286,2.08314c0.0111,0.14877 0.00868,0.30614 0.00028,0.46787c-0.59178,0.06907 -0.59178,0.69538 -0.59178,0.69538c0.00654,0.77782 0.25394,1.41249 0.30545,2.17554c0.02583,0.38258 0.02218,0.77296 0.01396,1.16271c-0.1344,0.12781 -0.21818,0.30835 -0.21818,0.50846c0,0.04019 0.00338,0.07959 0.00987,0.11793c-0.07637,0.02297 -0.15548,0.06353 -0.23523,0.12791c-0.49444,-0.58528 -1.00526,-1.15573 -1.481,-1.73351c-1.5894,-1.9303 -3.18229,-3.81309 -4.90036,-5.61434l-0.00823,0.18612c-0.81699,3.17314 0.36438,6.75496 0.92175,9.92091c0.49657,-0.04903 0.98166,-0.05952 1.48151,-0.06174c-0.05924,-0.24522 -0.14933,-0.48717 -0.21633,-0.72929c-0.206,-0.74438 -0.12728,-1.55382 -0.12728,-2.31523v-0.45091c-0.11209,-0.18159 -0.23246,-0.51829 0.10425,-0.85499z" fill="#000000"/><path d="M345.90902,89.82131l-0.00212,0.4477c0,0.76141 -0.08753,1.56365 0.11847,2.30803c0.06701,0.24212 0.13708,0.53059 0.19632,0.77581c-0.49985,0.00222 -0.9904,0.00989 -1.48697,0.05892c-0.55737,-3.16595 -1.74019,-6.78865 -0.92321,-9.96179l0.00859,-0.1864c1.71807,1.80125 3.35082,3.71072 4.94022,5.64102c0.47575,0.57779 0.98132,1.15822 1.47576,1.7435c0.07976,-0.06438 0.11905,-0.13629 0.19542,-0.15926c-0.00649,-0.03834 -0.0103,-0.07712 -0.0103,-0.11731c0,-0.20011 0.08153,-0.37657 0.21593,-0.50437c0.00822,-0.38974 0.00974,-0.7702 -0.01609,-1.15278c-0.05152,-0.76305 -0.29243,-1.38055 -0.29897,-2.15836c0,0 0.00051,-0.62576 0.59229,-0.69483c0.0084,-0.16172 0.0122,-0.31776 0.0011,-0.46652c-0.05424,-0.72701 -0.25145,-1.38042 -0.34701,-2.07918l0.18201,-0.04531c0.20482,-0.00055 0.41182,0.00716 0.61646,0.02077c0.00048,0.02742 0.0027,0.05456 0.00625,0.08112c-0.01779,0.16651 0.02143,0.30198 0.02143,0.30198l0.18834,0.64117c0.04794,0.64421 0.09115,1.2937 0.12841,1.9373c0.05398,0.14587 0.05476,0.27408 0.05476,0.27408c-0.00818,0.73713 0.25025,1.35149 0.30521,2.08811c0.05329,0.71429 -0.00102,1.47099 -0.00102,2.18756l-0.00049,0.21555c0.07865,0.11591 0.12419,0.27648 0.09317,0.49358c-0.09228,0.64597 -0.7027,0.60908 -0.7871,0.60024c0.37553,0.53953 0.7062,1.10493 0.96164,1.70787l0.02133,0.09809l-0.53679,0.1555c-0.62971,0.1596 -0.72874,-0.16694 -1.18208,-0.61829c-0.9115,-0.9075 -1.00095,-2.2132 -1.925,-3.13725c-0.46132,-0.46132 -1.0968,-0.74239 -1.59215,-1.17498c-0.04212,-0.05827 -0.09861,-0.11784 -0.16879,-0.16144c-0.05251,-0.04938 -0.47047,-0.47359 -0.93785,-0.00621c-0.3367,0.3367 -0.21926,0.6648 -0.10717,0.84639z" data-paper-data="{&quot;noHover&quot;:false,&quot;origItem&quot;:[&quot;Path&quot;,{&quot;applyMatrix&quot;:true,&quot;segments&quot;:[[[345.99111,88.97864],[-0.3367,0.3367],[0.46737,-0.46737]],[[346.97836,88.97396],[-0.05251,-0.04938],[0.07017,0.0436]],[[347.14503,89.13032],[-0.04212,-0.05827],[0.49535,0.43259]],[[348.70414,90.29462],[-0.46132,-0.46132],[0.92405,0.92405]],[[350.62749,93.43273],[-0.9115,-0.9075],[0.45334,0.45135]],[[351.80724,94.05251],[-0.62971,0.1596],[0,0]],[352.34248,93.89821],[[352.32102,93.80023],[0,0],[-0.25544,-0.60294]],[[351.35792,92.09371],[0.37553,0.53953],[0.08441,0.00884]],[[352.1419,91.49728],[-0.09228,0.64597],[0.03102,-0.2171]],[[352.04772,91.00534],[0.07865,0.11591],[0,0]],[[352.04772,90.79069],[0,0],[0,-0.71657]],[[352.04595,88.61515],[0.05329,0.71429],[-0.05496,-0.73663]],[[351.74403,86.53907],[-0.00818,0.73713],[0,0]],[[351.69005,86.26627],[0.05398,0.14587],[-0.03726,-0.6436]],[[351.56672,84.33469],[0.04794,0.64421],[0,0]],[351.38022,83.69492],[[351.35942,83.39336],[-0.01779,0.16651],[-0.00354,-0.02656]],[[351.35334,83.31235],[0.00048,0.02742],[-0.20464,-0.01361]],[[350.7388,83.29268],[0.20482,-0.00055],[0,0]],[[350.57957,83.29268],[0,0],[0.09555,0.69876]],[[350.93244,85.37582],[-0.05424,-0.72701],[0.0111,0.14877]],[[350.93272,85.84369],[0.0084,-0.16172],[-0.59178,0.06907]],[[350.34094,86.53907],[0,0],[0.00654,0.77782]],[[350.64639,88.71461],[-0.05152,-0.76305],[0.02583,0.38258]],[[350.66035,89.87732],[0.00822,-0.38974],[-0.1344,0.12781]],[[350.44217,90.38578],[0,-0.20011],[0,0.04019]],[[350.45204,90.5037],[-0.00649,-0.03834],[-0.07637,0.02297]],[[350.2168,90.63161],[0.07976,-0.06438],[-0.49444,-0.58528]],[[348.7358,88.8981],[0.47575,0.57779],[-1.5894,-1.9303]],[[343.83544,83.28377],[1.71807,1.80125],[0,0]],[[343.82721,83.46989],[0,0],[-0.81699,3.17314]],[[344.74897,93.3908],[-0.55737,-3.16595],[0.49657,-0.04903]],[[346.23047,93.32906],[-0.49985,0.00222],[-0.05924,-0.24522]],[[346.01414,92.59978],[0.06701,0.24212],[-0.206,-0.74438]],[[345.88686,90.28455],[0,0.76141],[0,0]],[[345.88686,89.83364],[0,0],[-0.11209,-0.18159]]],&quot;closed&quot;:true}]}" fill="#ffffff"/><path d="M355.99565,83.25924l-0.00705,0.00202c0.13958,0.9944 0.546,1.59139 0.93465,2.49825c0.73776,1.09613 1.46087,2.31146 2.54216,3.11719c0.55503,0.41358 1.88534,0.84666 2.15599,1.53023c0.1302,0.32884 -0.13234,0.69589 -0.16616,1.04795c-0.06317,0.65763 0.00678,1.36738 0.00678,2.02851c0,0.2362 0.05143,0.47807 0,0.7086c-0.00078,0.00349 -0.00187,0.00692 -0.00323,0.01029c0.00336,-0.00136 0.00679,-0.00245 0.01029,-0.00323c0.23054,-0.05143 0.4724,0 0.7086,0c0.57347,0 1.49038,0.34918 1.32304,-0.41197c0.0021,-0.90222 -0.07061,-2.23536 0.24866,-3.0848c0.42413,-1.12842 1.49405,-2.05893 2.06307,-3.12064c0.36823,-0.68707 0.64144,-1.43994 1.01229,-2.12581c0.44741,-0.82746 1.21232,-1.5362 1.59977,-2.38981c0.04789,-0.10552 0.09317,-0.21254 0.13778,-0.31997c-0.52699,0 -1.10763,0 -1.55505,0c-0.57212,0.86135 -0.79676,1.6698 -1.27705,2.56825c-0.69636,1.30263 -1.80231,2.26708 -2.53847,3.55693c0,0 -0.22938,0.40142 -0.64159,0.3663c-0.31879,0.02773 -0.56482,-0.2183 -0.56482,-0.2183l-0.18888,-0.20815c-0.4636,-0.70324 -0.99708,-1.0244 -1.56101,-1.64478c-0.18455,-0.20302 -0.84458,-1.30558 -0.97101,-1.49528c-0.57863,-0.8682 -1.22596,-1.59214 -1.62508,-2.52006c-0.5127,0 -1.19745,0 -1.6544,0c0.01074,0.06503 0.01074,0.10829 0.01074,0.10829zM370.05779,81.46077c0.58372,0.38915 0.19457,0.97287 0.19457,0.97287c-0.25299,0.3686 -0.36478,0.8164 -0.55434,1.22129c-0.41498,0.88641 -1.17779,1.60758 -1.63956,2.46919c-0.36823,0.68707 -0.64144,1.43994 -1.01229,2.12581c-0.54253,1.00338 -1.56595,1.90129 -1.98609,2.95311c-0.26495,0.66329 -0.15816,1.87095 -0.15625,2.58403c-0.02767,0.34654 0.10005,0.74409 -0.08301,1.03963c-0.62563,1.01004 -1.69007,0.77543 -2.64312,0.77543c-0.42461,0 -1.66808,0.03971 -1.91327,-0.20548c-0.28804,-0.28804 -0.16198,-0.79964 -0.20548,-1.20467c-0.08898,-0.82853 -0.16277,-2.1202 0.00678,-2.93172c0.02998,-0.14348 0.27155,-0.2264 0.23875,-0.36926c-0.02565,-0.11173 -0.23519,-0.01263 -0.33805,-0.06323c-0.47562,-0.23398 -0.92942,-0.51693 -1.35267,-0.83603c-1.23981,-0.93473 -2.08347,-2.29267 -2.92421,-3.56393c-0.44936,-1.04849 -0.92163,-1.80772 -1.08993,-2.96812l-0.00705,-0.20044c0,0 0,-0.64177 0.61382,-0.69767c-0.00421,-0.03524 -0.00645,-0.07258 -0.00645,-0.11216c0,-0.70155 0.70155,-0.70155 0.70155,-0.70155c0.53989,0 1.07978,0 1.61967,0h0.40492c0,0 0.03489,0 0.08912,0.00778c0.61041,-0.12013 0.78789,0.50103 0.78789,0.50103c0.15872,0.59468 0.54921,1.10784 0.90881,1.60737c0.52046,0.723 0.96606,1.71571 1.57366,2.37172c0.40808,0.44058 0.81034,0.77233 1.18407,1.17678c0.67362,-0.93327 1.47511,-1.75114 2.02686,-2.76655c0.23249,-0.42786 0.28067,-0.93611 0.48624,-1.37752c0.03017,-0.06478 0.79128,-1.20205 0.86287,-1.30943l0.27719,-0.29084c0.08652,-0.14812 0.2208,-0.22879 0.34138,-0.27272c0.11257,-0.05245 0.25853,-0.08965 0.41818,-0.05253c0.65882,0 1.31764,0 1.97646,0h0.60738c0,0 0.01765,0 0.04735,0.0028c0.15037,-0.03899 0.33478,-0.02462 0.54426,0.11503zM361.3919,94.26918c-0.07734,0.05007 -0.18347,0.08722 -0.13535,0.13535c0.04813,0.04813 0.08528,-0.05801 0.13535,-0.13535z" fill="#000000"/><path d="M355.96562,83.13451c0.45696,0 1.14442,-0.00273 1.65712,-0.00273c0.39912,0.92792 1.08147,1.68846 1.6601,2.55666c0.12643,0.1897 0.78918,1.28882 0.97374,1.49184c0.56393,0.62037 1.09775,0.91411 1.56135,1.61735l0.17993,0.19956c0,0 0.22445,0.24437 0.54324,0.21664c0.41221,0.03512 0.62701,-0.35183 0.62701,-0.35183c0.73616,-1.28985 1.84712,-2.22785 2.54348,-3.53048c0.48029,-0.89844 0.73963,-1.74372 1.31175,-2.60507c0.44742,0 1.03066,0.00246 1.55765,0.00246c-0.0446,0.10743 -0.08959,0.21478 -0.13748,0.3203c-0.38745,0.85361 -1.15029,1.56503 -1.5977,2.39249c-0.37085,0.68587 -0.64059,1.44643 -1.00882,2.1335c-0.56902,1.06171 -1.64929,2.0197 -2.07342,3.14812c-0.31928,0.84944 -0.25499,2.18625 -0.25709,3.08847c0.16734,0.76116 -0.75574,0.41263 -1.32921,0.41263c-0.2362,0 -0.48119,-0.05167 -0.71173,-0.00025c-0.00349,0.00078 -0.00697,0.00186 -0.01033,0.00322c0.00136,-0.00336 0.00246,-0.00679 0.00324,-0.01029c0.05143,-0.23054 -0.0005,-0.47248 -0.0005,-0.70868c0,-0.66113 -0.07266,-1.37147 -0.00949,-2.0291c0.03382,-0.35206 0.2949,-0.71956 0.1647,-1.0484c-0.27065,-0.68357 -1.61785,-1.13737 -2.17288,-1.55095c-1.08129,-0.80573 -1.8018,-2.03592 -2.53956,-3.13205c-0.38865,-0.90686 -0.79198,-1.50851 -0.93156,-2.50291l0.00706,-0.00203c0,0 0.00015,-0.04343 -0.01059,-0.10846z" data-paper-data="{&quot;noHover&quot;:false,&quot;origItem&quot;:[&quot;Path&quot;,{&quot;applyMatrix&quot;:true,&quot;segments&quot;:[[355.99565,83.25924],[[355.9886,83.26126],[0,0],[0.13958,0.9944]],[[356.92326,85.75951],[-0.38865,-0.90686],[0.73776,1.09613]],[[359.46542,88.8767],[-1.08129,-0.80573],[0.55503,0.41358]],[[361.62141,90.40693],[-0.27065,-0.68357],[0.1302,0.32884]],[[361.45525,91.45488],[0.03382,-0.35206],[-0.06317,0.65763]],[[361.46203,93.48339],[0,-0.66113],[0,0.2362]],[[361.46203,94.19199],[0.05143,-0.23054],[-0.00078,0.00349]],[[361.4588,94.20228],[0.00136,-0.00336],[0.00336,-0.00136]],[[361.46909,94.19905],[-0.00349,0.00078],[0.23054,-0.05143]],[[362.17769,94.19905],[-0.2362,0],[0.57347,0]],[[363.50072,93.78708],[0.16734,0.76116],[0.0021,-0.90222]],[[363.74939,90.70228],[-0.31928,0.84944],[0.42413,-1.12842]],[[365.81246,87.58163],[-0.56902,1.06171],[0.36823,-0.68707]],[[366.82475,85.45582],[-0.37085,0.68587],[0.44741,-0.82746]],[[368.42451,83.06601],[-0.38745,0.85361],[0.04789,-0.10552]],[[368.56229,82.74604],[-0.0446,0.10743],[-0.52699,0]],[[367.00724,82.74604],[0.44742,0],[-0.57212,0.86135]],[[365.73019,85.31429],[0.48029,-0.89844],[-0.69636,1.30263]],[[363.19172,88.87122],[0.73616,-1.28985],[0,0]],[[362.55013,89.23752],[0.41221,0.03512],[-0.31879,0.02773]],[361.98531,89.01923],[[361.79643,88.81108],[0,0],[-0.4636,-0.70324]],[[360.23542,87.1663],[0.56393,0.62037],[-0.18455,-0.20302]],[[359.2644,85.67102],[0.12643,0.1897],[-0.57863,-0.8682]],[[357.63932,83.15096],[0.39912,0.92792],[-0.5127,0]],[[355.98491,83.15096],[0.45696,0],[0.01074,0.06503]]],&quot;closed&quot;:true}]}" fill="#ffffff"/><path d="M384.30025,84.27154c0,-0.14831 0.04602,-0.28588 0.12457,-0.39919c-0.01171,-0.02867 -0.02557,-0.05782 -0.04198,-0.08666c0.14361,-0.1362 0.28598,-0.27436 0.42658,-0.41514c0.74416,-0.74416 1.51521,-1.46817 2.22701,-2.24418c-1.11354,0 -2.22708,0 -3.34062,0c-0.80844,0.54163 -1.97416,1.33563 -2.93001,1.20913c-0.01921,0.03059 -0.03827,0.0612 -0.05717,0.09189c-0.00741,-0.01729 -0.01482,-0.03458 -0.02223,-0.05187l-0.02849,-0.08818c0.04448,-0.08596 0.08769,-0.17578 0.12972,-0.27017l0.01119,-0.07448c-0.10354,0.06025 -0.2239,0.09475 -0.35232,0.09475c-0.08923,0 -0.17457,-0.01666 -0.25307,-0.04703c-0.07851,0.03038 -0.16384,0.04703 -0.25307,0.04703c-0.27297,0 -0.50952,-0.15589 -0.62549,-0.38351c-0.81631,-0.302 -1.67746,-0.50932 -2.44185,-0.91593c-0.86391,-0.45955 -1.92565,-1.14194 -2.9761,-1.04128c-0.42315,0.04055 -0.78677,1.21272 -0.93964,1.48109l-0.13203,0.2658c1.39034,-0.13821 2.38786,0.52929 3.64199,1.06789c0.23171,0.09951 0.46467,0.19513 0.69811,0.28877c0.0849,-0.06382 0.19775,-0.1129 0.34752,-0.13429c0.6945,-0.09921 0.79371,0.59528 0.79371,0.59528c0.03374,0.2362 0.06748,0.4724 0.10123,0.7086l0.00705,0.50413c0,0 0,0.0348 -0.00775,0.0889c0.03527,-0.00433 0.06974,-0.01128 0.10319,-0.02065c-0.04479,0.0729 -0.08157,0.16036 -0.09333,0.26026c-0.02231,-0.00932 -0.04464,-0.01861 -0.06699,-0.02787c-0.07493,0.18154 -0.23642,0.38138 -0.58444,0.39956c-1.38193,1.03372 -2.63172,2.2608 -3.94543,3.3728c-0.37661,0.31879 -0.9573,0.41894 -1.22205,0.83531c-0.18287,0.2876 0.36324,0.57995 0.49785,0.89306c0.27309,0.63522 0.56014,1.22601 0.84045,1.86274c1.15269,-0.20026 2.24576,-1.16625 3.19397,-1.77483c1.21711,-0.78117 2.40281,-1.71644 3.42748,-2.74111c0.29471,-0.29471 0.56721,-0.62189 0.84061,-0.9488l0.14584,-0.09722l-0.01233,-0.01849c0.17752,-0.10416 0.35291,-0.2118 0.52523,-0.32415l0.04626,0.32379c0.14319,-0.05166 0.26644,-0.05166 0.26644,-0.05166c0.2362,0 0.4724,0 0.7086,0h0.40492c0,0 0.70155,0 0.70155,0.70155c0,0.24312 -0.08425,0.40198 -0.19436,0.50579c1.08544,1.45862 1.92334,3.04469 2.65153,4.74909c1.21822,2.12461 2.00452,4.42947 2.68536,6.77685c0.53305,-0.04373 1.06538,-0.13401 1.59714,-0.07788c0.09334,0.00985 0.18525,0.15613 0.26227,0.10249c0.06475,-0.0451 -0.08629,-0.1357 -0.10425,-0.21254c-0.05056,-0.21628 -0.08446,-0.43726 -0.09947,-0.65887c-0.03807,-0.56246 -0.03268,-1.12845 -0.09815,-1.68838c-0.05936,-0.50766 -0.232,-0.99704 -0.30174,-1.50338c-0.02743,-0.19914 0.07876,-0.40939 0.02332,-0.60261c-0.17813,-0.62077 -0.86518,-1.2361 -1.10309,-1.89164c-0.18219,-0.50203 -0.4192,-0.98923 -0.53235,-1.51116c-0.07382,-0.34048 -0.05043,-0.73413 -0.26023,-1.01226c-0.58629,-0.58117 -1.24003,-0.99842 -1.61266,-1.76998c-0.27502,-0.56946 -0.50585,-1.26495 -0.91488,-1.76918c-0.32364,-0.39897 -0.80477,-0.64877 -1.13631,-1.0412l-0.15539,-0.23243c0.02203,-0.12493 0.01669,-0.27419 -0.06614,-0.41915c-0.30213,-0.07819 -0.52526,-0.35264 -0.52526,-0.67921zM380.44648,80.63434c0.02479,0 0.04929,0.00129 0.07342,0.0038l0.23027,-0.10502c0,0 0.41818,0 0.60882,0.32286c0.2107,-0.121 0.41517,-0.30728 0.47424,-0.3394c0.26473,-0.14397 0.54048,-0.2694 0.80743,-0.40943c0.17091,-0.38386 0.64024,-0.38386 0.64024,-0.38386c0.04225,0 0.08472,0 0.1274,0c0.06807,-0.01099 0.14296,-0.0136 0.22019,0c1.50927,0 3.2423,0 4.71387,0c0,0 0.56097,0 0.67966,0.50162c0.35314,0.46295 -0.08235,0.89845 -0.08235,0.89845l-0.26082,0.25674c-0.86688,1.0384 -1.8573,1.96548 -2.8149,2.92029l0.30736,0.46248c0.30976,0.37906 0.77949,0.60554 1.09073,0.98339c0.48232,0.58553 0.81207,1.39502 1.10971,2.07753c0.25657,0.58832 0.98498,1.02721 1.42421,1.46936c0.59152,0.94059 0.66004,1.88876 1.02954,2.94295c0.25196,0.71885 0.89781,1.25036 1.12395,1.95507c0.083,0.25865 -0.01633,0.54586 0.02332,0.8146c0.12322,0.83518 0.3594,1.62693 0.41062,2.48801c0.04099,0.68912 0.3261,2.214 -0.2044,2.76191c-0.27697,0.28606 -0.76199,0.24064 -1.15494,0.30494c-0.52157,0.08535 -1.12428,0.09935 -1.68814,0.10203c-0.09466,0.15874 -0.2687,0.30465 -0.58864,0.30465c-0.70155,0 -0.70155,-0.70155 -0.70155,-0.70155l0.02699,-0.31342c-0.68067,-2.38236 -1.45894,-4.70968 -2.68663,-6.86482c-0.8077,-1.8791 -1.73316,-3.61675 -3.02385,-5.17894c-0.02081,-0.00068 -0.08248,-0.00422 -0.16101,-0.02261c-0.21083,0.25264 -0.42409,0.50113 -0.65131,0.72835c-1.09554,1.09554 -2.35852,2.09068 -3.65856,2.92773c-1.37874,0.88772 -2.73827,2.007 -4.42969,2.03552c0,0 -0.66243,0 -0.6999,-0.6437c-0.03116,-0.05019 -0.04616,-0.08518 -0.04616,-0.08518c-0.2956,-0.69774 -0.6178,-1.33839 -0.91275,-2.02856c-0.29228,-0.68393 -0.84656,-1.04038 -0.51444,-1.94136c0.13998,-0.37974 1.30186,-1.1291 1.61236,-1.39173c1.29554,-1.0958 2.5326,-2.29664 3.88524,-3.33021c-0.28845,-0.11354 -0.57677,-0.22961 -0.86354,-0.35228c-0.9572,-0.40944 -1.89884,-1.1615 -2.96898,-0.96431c0,0 -0.69449,0.09921 -0.79371,-0.59528c-0.01621,-0.11349 -0.01123,-0.21109 0.00845,-0.29495c-0.09976,-0.00042 -0.21186,-0.02562 -0.3363,-0.08784c-0.62748,-0.31374 -0.31374,-0.94123 -0.31374,-0.94123l0.22083,-0.43924c0.28672,-0.50004 0.384,-1.13107 0.79414,-1.53608c0.85808,-0.84737 1.76135,-0.64621 2.79571,-0.42164c0.85683,0.18602 1.46509,0.57225 2.21242,0.98033c0.40861,0.22312 0.87969,0.30525 1.31807,0.46199c0.47963,0.17148 0.95506,0.4517 1.42595,0.68667c0.05175,-0.01216 0.1057,-0.0186 0.16116,-0.0186z" fill="#000000"/><path d="M384.83933,84.92949c0.08282,0.14496 0.08933,0.29502 0.0673,0.41995l0.15644,0.23324c0.33154,0.39243 0.8178,0.64792 1.14144,1.04688c0.40903,0.50423 0.64353,1.20859 0.91855,1.77805c0.37263,0.77156 1.02675,1.19648 1.61304,1.77766c0.20981,0.27813 0.18584,0.67515 0.25966,1.01563c0.11315,0.52194 0.34887,1.01306 0.53106,1.51509c0.2379,0.65554 0.92348,1.27382 1.10161,1.89459c0.05544,0.19322 -0.05143,0.40457 -0.024,0.60371c0.06974,0.50634 0.24097,0.99766 0.30033,1.50532c0.06547,0.55993 0.05842,1.1278 0.09649,1.69025c0.015,0.22161 0.04836,0.44313 0.09892,0.65941c0.01796,0.07684 0.1689,0.16753 0.10415,0.21263c-0.07702,0.05364 -0.16909,-0.09248 -0.26243,-0.10233c-0.53177,-0.05613 -1.09679,-0.00454 -1.62984,0.03919c-0.68083,-2.34739 -1.47325,-4.64554 -2.69147,-6.77015c-0.7282,-1.70439 -1.56403,-3.26071 -2.64947,-4.71934c0.11011,-0.10381 0.19575,-0.26115 0.19575,-0.50427c0,-0.70155 -0.69552,-0.69703 -0.69552,-0.69703l-0.40236,0.0012c-0.2362,0 -0.46705,0.0015 -0.70325,0.0015c0,0 -0.12107,0.00026 -0.26425,0.05193l-0.04571,-0.32375c-0.17232,0.11235 -0.34333,0.21984 -0.52085,0.32401l0.01224,0.0185l-0.14446,0.09703c-0.2734,0.32691 -0.53549,0.64975 -0.8302,0.94446c-1.02467,1.02467 -2.20014,1.93465 -3.41726,2.71582c-0.9482,0.60858 -2.09025,1.58724 -3.24295,1.7875c-0.28031,-0.63672 -0.56857,-1.23327 -0.84166,-1.8685c-0.13461,-0.31311 -0.68082,-0.60801 -0.49795,-0.89561c0.26475,-0.41638 0.84561,-0.51917 1.22222,-0.83796c1.31371,-1.112 2.57116,-2.35449 3.9531,-3.38821c0.34802,-0.01818 0.5118,-0.21997 0.58674,-0.40151c0.02235,0.00926 0.0448,0.01845 0.06712,0.02777c0.01176,-0.0999 0.04933,-0.18793 0.09412,-0.26083c-0.03345,0.00937 -0.03899,0.05797 -0.07426,0.0623c0.00775,-0.0541 -0.02132,-0.13046 -0.02132,-0.13046l-0.00614,-0.50473c-0.03374,-0.2362 -0.0666,-0.47294 -0.10034,-0.70914c0,0 -0.07289,-0.65117 -0.76739,-0.55195c-0.14976,0.02139 -0.26168,0.06984 -0.34658,0.13366c-0.23344,-0.09364 -0.46547,-0.18995 -0.69718,-0.28946c-1.25414,-0.5386 -2.24825,-1.20929 -3.63859,-1.07109l0.0945,-0.2999c0.15287,-0.26836 0.51903,-1.44291 0.94217,-1.48346c1.05044,-0.10066 2.11561,0.57937 2.97952,1.03892c0.76439,0.40661 1.63025,0.61183 2.44655,0.91384c0.11596,0.22761 0.35402,0.38307 0.62699,0.38307c0.08923,0 0.17539,-0.01686 0.25389,-0.04723c0.07851,0.03038 0.16462,0.04687 0.25385,0.04687c0.12842,0 0.24998,-0.03471 0.35352,-0.09495l-0.0039,0.12467c-0.04203,0.09439 -0.08467,0.18412 -0.12915,0.27008l0.02003,0.03818c0.00741,0.01729 0.01487,0.03458 0.02228,0.05187c0.0189,-0.03069 0.0382,-0.06134 0.05741,-0.09193c0.95585,0.12651 2.13086,-0.66723 2.9393,-1.20885c1.11354,0 2.23502,0.0032 3.34856,0.0032c-0.7118,0.776 -1.50712,1.54447 -2.25128,2.28863c-0.1406,0.14078 -0.28221,0.27929 -0.42582,0.41548c0.01641,0.02884 0.05094,0.01168 0.06265,0.04035c-0.07854,0.11331 -0.12436,0.25097 -0.12436,0.39928c0,0.32657 0.22628,0.60276 0.5284,0.68095z" data-paper-data="{&quot;noHover&quot;:false,&quot;origItem&quot;:[&quot;Path&quot;,{&quot;applyMatrix&quot;:true,&quot;segments&quot;:[[[384.30025,84.27154],[0,0.32657],[0,-0.14831]],[[384.42481,83.87235],[-0.07854,0.11331],[-0.01171,-0.02867]],[[384.38284,83.78569],[0.01641,0.02884],[0.14361,-0.1362]],[[384.80941,83.37055],[-0.1406,0.14078],[0.74416,-0.74416]],[[387.03642,81.12638],[-0.7118,0.776],[-1.11354,0]],[[383.6958,81.12638],[1.11354,0],[-0.80844,0.54163]],[[380.76579,82.3355],[0.95585,0.12651],[-0.01921,0.03059]],[[380.70862,82.42739],[0.0189,-0.03069],[-0.00741,-0.01729]],[[380.68639,82.37552],[0.00741,0.01729],[0,0]],[[380.6579,82.28734],[0,0],[0.04448,-0.08596]],[[380.78762,82.01716],[-0.04203,0.09439],[0,0]],[[380.79881,81.94268],[0,0],[-0.10354,0.06025]],[[380.44648,82.03744],[0.12842,0],[-0.08923,0]],[[380.19341,81.99041],[0.07851,0.03038],[-0.07851,0.03038]],[[379.94034,82.03744],[0.08923,0],[-0.27297,0]],[[379.31485,81.65393],[0.11596,0.22761],[-0.81631,-0.302]],[[376.873,80.738],[0.76439,0.40661],[-0.86391,-0.45955]],[[373.89691,79.69672],[1.05044,-0.10066],[-0.42315,0.04055]],[[372.95726,81.17781],[0.15287,-0.26836],[0,0]],[[372.82523,81.44361],[0,0],[1.39034,-0.13821]],[[376.46723,82.5115],[-1.25414,-0.5386],[0.23171,0.09951]],[[377.16534,82.80027],[-0.23344,-0.09364],[0.0849,-0.06382]],[[377.51285,82.66598],[-0.14976,0.02139],[0.6945,-0.09921]],[[378.30656,83.26126],[0,0],[0.03374,0.2362]],[[378.40779,83.96986],[-0.03374,-0.2362],[0,0]],[378.41484,84.47399],[[378.40709,84.56289],[0.00775,-0.0541],[0.03527,-0.00433]],[[378.51028,84.54224],[-0.03345,0.00937],[-0.04479,0.0729]],[[378.41695,84.80251],[0.01176,-0.0999],[-0.02231,-0.00932]],[[378.34996,84.77464],[0.02235,0.00926],[-0.07493,0.18154]],[[377.76553,85.1742],[0.34802,-0.01818],[-1.38193,1.03372]],[[373.8201,88.547],[1.31371,-1.112],[-0.37661,0.31879]],[[372.59804,89.38231],[0.26475,-0.41638],[-0.18287,0.2876]],[[373.0959,90.27537],[-0.13461,-0.31311],[0.27309,0.63522]],[[373.93635,92.13811],[-0.28031,-0.63672],[1.15269,-0.20026]],[[377.13031,90.36328],[-0.9482,0.60858],[1.21711,-0.78117]],[[380.55779,87.62217],[-1.02467,1.02467],[0.29471,-0.29471]],[[381.3984,86.67338],[-0.2734,0.32691],[0,0]],[381.54423,86.57615],[[381.53191,86.55766],[0,0],[0.17752,-0.10416]],[[382.05714,86.23351],[-0.17232,0.11235],[0,0]],[[382.10339,86.5573],[0,0],[0.14319,-0.05166]],[[382.36984,86.50563],[0,0],[0.2362,0]],[[383.07844,86.50563],[-0.2362,0],[0,0]],[383.48336,86.50563],[[384.1849,87.20718],[0,-0.70155],[0,0.24312]],[[383.99054,87.71298],[0.11011,-0.10381],[1.08544,1.45862]],[[386.64208,92.46206],[-0.7282,-1.70439],[1.21822,2.12461]],[[389.32743,99.23892],[-0.68083,-2.34739],[0.53305,-0.04373]],[[390.92458,99.16104],[-0.53177,-0.05613],[0.09334,0.00985]],[[391.18685,99.26352],[-0.07702,0.05364],[0.06475,-0.0451]],[[391.0826,99.05099],[0.01796,0.07684],[-0.05056,-0.21628]],[[390.98313,98.39212],[0.015,0.22161],[-0.03807,-0.56246]],[[390.88498,96.70374],[0.06547,0.55993],[-0.05936,-0.50766]],[[390.58323,95.20036],[0.06974,0.50634],[-0.02743,-0.19914]],[[390.60655,94.59775],[0.05544,0.19322],[-0.17813,-0.62077]],[[389.50347,92.70611],[0.2379,0.65554],[-0.18219,-0.50203]],[[388.97111,91.19494],[0.11315,0.52194],[-0.07382,-0.34048]],[[388.71088,90.18268],[0.20981,0.27813],[-0.58629,-0.58117]],[[387.09822,88.4127],[0.37263,0.77156],[-0.27502,-0.56946]],[[386.18334,86.64353],[0.40903,0.50423],[-0.32364,-0.39897]],[[385.04703,85.60233],[0.33154,0.39243],[0,0]],[[384.89165,85.3699],[0,0],[0.02203,-0.12493]],[[384.82551,84.95075],[0.08282,0.14496],[-0.30213,-0.07819]]],&quot;closed&quot;:true}]}" fill="#ffffff"/><path d="M308.36116,88.44597c-0.21189,0.10594 -0.388,0.10456 -0.52834,0.05626c-0.26774,0.21358 -0.51045,0.47497 -0.83291,0.57178c-0.91375,0.27433 -1.45145,0.01455 -1.89284,-0.43149c-0.04407,0.20295 -0.11107,0.4045 -0.1732,0.59418c-0.10158,0.31009 -0.3763,0.53322 -0.5607,0.80242c-0.07576,0.1106 -0.13037,0.24128 -0.19801,0.35923c0.29675,0.14538 0.56866,0.36096 0.74532,0.63212c0.39022,0.59899 -0.33839,1.19399 0.54472,1.14968c0.99154,0.00886 1.9922,-0.69138 2.98798,-0.37658c0.34039,0.10761 0.65914,0.31693 0.90015,0.58029c0.09193,0.10045 -0.13027,0.42638 0.00472,0.40848c0.14814,-0.01965 0.05196,-0.30363 0.13607,-0.42715c0.12924,-0.1898 0.3245,-0.32498 0.48674,-0.48747l-0.03019,-0.02013c0,0 0.31374,-0.62748 0.94122,-0.31374c0.62748,0.31374 0.31374,0.94122 0.31374,0.94122l-0.23264,0.38478c-0.42411,0.42352 -1.23827,1.31751 -1.80669,1.31242c-0.59871,-0.00536 -0.60019,-0.88755 -1.11972,-1.03581c-0.25805,-0.07364 -0.84537,0.15534 -1.02118,0.20557c-0.53692,0.1534 -1.10128,0.22441 -1.65967,0.22769c-0.35104,-0.07358 -0.76802,-0.0031 -1.05312,-0.22072c-0.34586,-0.264 -0.53502,-0.70177 -0.68871,-1.10883c-0.06603,-0.17489 0.11017,-0.3777 0.05951,-0.55764c-0.13072,-0.46423 -1.17318,-0.09754 -1.33789,-0.55083c-0.15525,-0.42724 0.59039,-1.49638 0.87291,-1.89961c0.14591,-0.20825 0.26385,-0.4433 0.45159,-0.61478c0.06073,-0.05548 0.32382,0.00373 0.24577,-0.02221c-0.23557,-0.07828 -0.65925,0.09824 -0.73157,-0.13923c-0.13362,-0.43878 0.14006,-0.9103 0.27884,-1.34748c0.051,-0.16065 0.13107,-0.31175 0.224,-0.45408c0.00133,-0.03486 0.00584,-0.07068 0.01423,-0.10722c-0.66985,0.14376 -1.95118,-0.4136 -2.0824,-0.82484c-0.17768,-0.55686 0.6778,-1.56785 1.11607,-1.89085c0.10599,-0.07811 0.28426,-0.06716 0.40209,-0.11819l-0.11927,-0.47708c-0.01614,-0.05906 -0.02476,-0.12123 -0.02476,-0.18541c0,-0.38745 0.31409,-0.70155 0.70155,-0.70155c0.12109,0 0.23502,0.03068 0.33443,0.08469c-0.00474,-0.84197 1.25831,-1.25864 2.03386,-1.00702c0.23292,0.07557 0.11087,0.49332 0.26121,0.6866c0.04801,0.06172 0.05385,-0.15438 0.11291,-0.20563c0.17268,-0.14986 0.36455,-0.28007 0.56769,-0.38502c0.2891,-0.14935 0.57974,-0.32684 0.9017,-0.37405c0.39006,-0.0572 0.81805,-0.08594 1.18069,0.06868c0.23205,0.09894 0.32663,0.82659 0.45146,0.60738c0.08336,-0.14638 0.09417,-0.33948 0.21412,-0.45774c1.04655,-1.03177 1.57932,-0.62239 2.81779,-0.31293c0,0 0.6806,0.17015 0.51045,0.85075c-0.17015,0.6806 -0.85075,0.51045 -0.85075,0.51045c-0.27371,-0.06846 -0.55335,-0.11656 -0.82115,-0.20539c-0.13555,-0.04496 -0.24099,-0.2156 -0.38212,-0.19374c-0.439,0.06801 -0.4117,0.88606 -0.82628,1.04566c-0.42638,0.16415 -0.93837,0.14788 -1.37066,0c-0.23023,-0.07875 -0.21859,-0.45089 -0.40492,-0.60737c-0.2032,-0.17065 -1.31966,0.70142 -1.39909,0.72682c-0.41891,0.13398 -0.88564,0.33406 -1.30429,0.19929c-0.25652,-0.08258 -0.22964,-0.48761 -0.34616,-0.73061c-0.07643,-0.15938 -0.04887,0.36062 -0.14182,0.51097c-0.20772,0.336 -0.45388,0.64647 -0.68686,0.9657c-0.14135,0.36549 -0.61236,0.50827 -0.90488,0.77531c-0.0717,0.06546 -0.13117,0.14722 -0.1944,0.22334c0.09249,0.06882 0.18219,0.14856 0.29146,0.16089c0.34936,0.03941 0.79982,-0.33348 1.05108,-0.08757c0.34261,0.33532 0.40772,0.89017 0.40737,1.38285c0.29409,0.43583 0.59314,0.98787 0.96304,1.17471c0.2215,0.11188 1.3162,-0.70899 1.50941,-0.79501l1.00506,0.53354c0,0 0.31374,0.62748 -0.31374,0.94123zM304.40627,87.77806c-0.00345,-0.00447 -0.00691,-0.00894 -0.01037,-0.01341c-0.01155,0.00184 -0.01024,0.00562 0.01037,0.01341z" fill="#dadada"/><path d="M331.0681,89.60728c0.43825,0.54781 -0.10956,0.98607 -0.10956,0.98607l-0.55525,0.44082c-0.20246,0.13497 -0.40492,0.26994 -0.60738,0.40492c-1.22734,0.81725 -2.65683,1.6861 -4.08363,2.09502c-0.45065,0.12916 -0.94024,0.44099 -1.37904,0.27599c-0.52671,-0.19805 -0.40924,-1.44879 -1.24706,-1.54599c-0.29831,-0.03461 -0.53314,0.35881 -0.6743,0.50453c-0.677,0.69885 -1.75917,2.50249 -2.95864,0.9038c-0.24181,-0.32229 0.28756,-0.75443 0.39002,-1.14411c0.14976,-0.56959 0.27453,-1.1259 0.47424,-1.67459c-0.24985,0.14156 -0.49018,0.29412 -0.70904,0.45792c-0.21318,0.15955 -0.33641,0.4375 -0.57621,0.55326c-0.36266,0.17508 -0.78172,0.19398 -1.17258,0.29097c-0.39055,-0.29939 -0.99341,-0.43948 -1.17163,-0.89817c-0.1533,-0.39456 0.1911,-0.82815 0.34816,-1.22123c0.36106,-0.90364 1.13639,-1.45346 1.67853,-2.22329c0.1769,-0.2512 0.2765,-0.49922 0.39252,-0.71173c-0.21464,0.09669 -0.42972,0.15919 -0.63067,0.0735c-0.45674,-0.19477 -0.79379,-0.70175 -0.90035,-1.18672c-0.19131,-0.87063 0.97193,-2.68228 1.61346,-3.23122c0.14152,-0.12109 -0.37052,0.117 -0.55303,0.07984c-0.29792,-0.06065 -0.5626,-0.23072 -0.8439,-0.34608c0,0 -0.64482,-0.27635 -0.36847,-0.92118c0.27635,-0.64482 0.92118,-0.36847 0.92118,-0.36847c0.9705,0.44231 2.05346,-0.05055 2.24732,1.55588c0.01056,0.08754 -0.78682,1.45959 -0.90018,1.66037c-0.15947,0.28245 -0.32461,0.56187 -0.47518,0.84916c-0.10192,0.19446 -0.46611,0.74392 -0.34103,0.56349c0.71973,-1.03815 2.25492,-0.54762 2.32035,0.84282c0.01924,0.40878 -0.5212,0.63243 -0.75255,0.96999c-0.40296,0.58798 -0.77097,1.20468 -1.23506,1.74572c-0.17623,0.20545 -1.0638,1.31366 -1.12963,1.37941c0.26691,-0.12592 0.44121,-0.39393 0.67729,-0.57137c0.62095,-0.4667 1.38956,-0.86051 2.1014,-1.16647l0.55926,-0.37285c0.11292,-0.07768 0.24972,-0.12315 0.39713,-0.12315c0.38745,0 0.70155,0.31409 0.70155,0.70155c0,0.07253 -0.01101,0.1425 -0.03144,0.20831l-0.19801,0.69302l-0.02122,-0.00606c-0.00463,0.03601 -0.01012,0.07194 -0.01657,0.1078c-0.04477,0.24865 -0.30399,0.40692 -0.41728,0.63275c-0.11326,0.22579 -0.21952,0.45609 -0.31456,0.69074c0.56985,-0.41982 1.25546,-0.72164 1.65789,-0.69843c0.67637,0.03901 1.5526,0.69392 1.87625,1.25543c0.0743,0.1289 -0.20884,0.35334 -0.08643,0.43791c0.11231,0.07759 0.12318,-0.2618 0.24062,-0.33138c0.30213,-0.17898 0.65746,-0.2481 0.97835,-0.39073c0.98631,-0.43842 1.93728,-0.96491 2.83389,-1.56341c0.20246,-0.13497 0.40492,-0.26994 0.60738,-0.40492l0.45704,-0.36901c0,0 0.54781,-0.43825 0.98607,0.10956z" fill="#d8d8d8"/><path d="M335.91138,92.78687c-0.0244,0.05985 -0.04463,0.12128 -0.06001,0.18458zM335.99769,92.6095c0.08926,0.10334 0.41171,0.53615 -0.02111,0.96897c-0.49607,0.49607 -0.99214,0 -0.99214,0l-0.48217,-0.99248c0.09079,-0.29055 0.11879,-0.60883 0.27237,-0.87165c0.31195,-0.53384 1.03354,-0.81993 1.32936,-1.35398c0.02063,-0.03724 -0.08491,0.0116 -0.1274,0.00896c-0.19519,-0.01214 -0.39641,0.00109 -0.58428,-0.05322c-0.44475,-0.12855 -1.64031,-0.67776 -1.78503,-1.14205c-0.23887,-0.76637 0.29048,-1.52964 1.01251,-2.04079c-0.04389,-0.25559 -0.00752,-0.59502 0.132,-1.04572c0.17498,-0.56527 0.81216,-0.86256 1.1818,-1.32463c0.11093,-0.13867 0.1956,-0.29729 0.30878,-0.43413c0.03925,-0.04746 0.19919,-0.08527 0.14499,-0.11451c-0.09749,-0.05259 -0.22286,0.0324 -0.33203,0.01362c-0.96302,-0.16564 -1.89876,-0.36104 -2.87934,-0.4699c0,0 -0.69726,-0.07747 -0.61978,-0.77473c0.07747,-0.69726 0.77473,-0.61978 0.77473,-0.61978c1.00734,0.11202 2.25563,0.11921 3.19441,0.54239c0.37995,0.17127 0.88879,0.2534 1.08518,0.62099c0.40152,0.75157 -0.15888,1.54869 -0.55853,2.08331c-0.20008,0.26765 -0.42219,0.51889 -0.65184,0.76164c-0.02881,0.03046 -0.06893,0.06921 -0.11461,0.11028c0.12578,-0.0011 0.24578,0.01275 0.31049,0.02177l0.70982,-0.08873c0.03202,-0.00448 0.06474,-0.00679 0.098,-0.00679c0.38745,0 0.70155,0.31409 0.70155,0.70155c0,0.3573 -0.26711,0.65222 -0.61254,0.69596l-0.69839,0.09977l-0.00176,-0.01233l-0.02596,0.00325l-0.02176,0.01437c-0.01023,0 -0.02046,0 -0.03068,0.00001c-0.1567,0.17831 -0.47685,0.09326 -0.70615,0.1675c-0.19459,0.06301 -0.3871,0.13783 -0.56599,0.237c-0.1409,0.07811 -0.25551,0.19639 -0.38605,0.2908c-0.0422,0.03052 -0.17349,0.05242 -0.13189,0.08376c0.78827,0.59372 2.33365,-0.07961 2.56474,1.44564c0.1667,1.10024 -1.02598,1.64983 -1.49129,2.47389z" fill="#dadada"/><path d="M350.86734,83.27023c0.70155,0 0.70155,0.70155 0.70155,0.70155v0.10123c0,0.36311 -0.25343,0.76554 -0.08301,1.08618c0.06004,0.11296 0.24376,0.08093 0.35766,0.13918c0.7769,0.39726 1.41837,0.90852 2.21351,1.27883c0.24133,0.38304 0.58392,0.71861 0.72399,1.14912c0.67837,2.08498 -1.81847,5.59915 -4.09376,5.02184c-0.68114,-0.17283 -1.29121,-0.75595 -1.64113,-1.33765c-0.26394,-0.43877 -0.22664,-0.9096 -0.59823,-1.27383c-0.53697,-0.52633 -1.32944,-0.76055 -2.00274,-1.15104c0.13137,0.67091 -0.16668,1.18262 -0.60291,1.70712c-0.09362,0.11256 -0.28831,0.11557 -0.36956,0.23735c-0.172,0.2578 0.55877,0.34032 0.69322,0.61954c0.21883,0.45447 0.59601,1.02965 0.35276,1.47154c-0.5567,1.01131 -1.70438,0.33706 -2.30514,0.09866c0,0 -0.64483,-0.27635 -0.36847,-0.92118c0.12974,-0.30273 0.3407,-0.40242 0.52802,-0.423c-0.18188,-0.37028 -0.32732,-0.79559 -0.25862,-1.19752c0.00577,-0.03379 1.1216,-1.07639 0.94204,-1.37768c-0.24976,-0.41906 -0.95919,-0.47828 -1.12385,-0.93749c-0.25401,-0.70842 0.38808,-1.67544 0.28444,-2.51386c-0.03166,-0.10928 -0.06023,-0.21879 -0.08554,-0.32823c-0.19163,-0.43978 -1.10437,-1.07525 -0.83572,-1.5867c1.38937,-2.6451 1.81476,-0.31926 2.09631,0.39154c-0.01972,1.12795 0.60441,2.48464 1.41595,3.29914c0.72746,0.73011 1.90665,0.88608 2.63196,1.61967c0.64245,0.64979 0.62068,1.95351 1.60735,2.24752c0.69341,0.20663 1.16351,-0.58036 1.51348,-0.99228c0.71252,-0.83865 1.21898,-1.71941 0.58312,-2.75721c-0.72421,-0.27332 -1.39897,-0.71137 -2.03812,-1.15067c-0.29896,-0.20548 -0.68234,-0.35275 -0.85709,-0.67066c-0.10181,-0.18522 -0.08301,-1.43247 -0.08301,-1.74824v-0.10123c0,0 0,-0.70155 0.70155,-0.70155z" fill="#d9d9d9"/><path d="M357.09299,82.93938c0.62748,-0.31374 0.94122,0.31374 0.94122,0.31374l0.05747,0.12705c0.15885,0.24871 0.31769,0.49743 0.47654,0.74614c0.06648,0.46537 0.00129,0.75685 0.3548,1.07836c0.212,0.1928 0.49831,0.2952 0.70067,0.49808c0.56792,0.5694 0.90293,1.13785 1.54333,1.65483c0.26633,0.21501 0.63231,0.34118 0.80618,0.63602c0.13577,0.23024 0.0269,0.5339 0.04111,0.80081c0.00291,0.05471 -0.04118,0.18291 0.01025,0.16403c0.98998,-0.36336 1.28014,-1.41322 1.92567,-2.1921c0.33328,-0.40212 0.75332,-0.63328 1.15441,-0.89317c0.36558,-0.49562 0.6456,-1.04219 0.88594,-1.60674l0.03069,-0.0286l-0.01181,-0.00675l0.39816,-0.69678c0.1191,-0.21768 0.35025,-0.36531 0.61587,-0.36531c0.3573,0 0.65222,0.26712 0.69595,0.61255l0.09977,0.69839l-0.04846,0.00692c0.01981,0.08084 0.03315,0.16319 0.03813,0.24748c0.00937,0.15851 -1.02186,1.57963 -1.10722,1.66479c-0.168,0.16761 -0.3573,0.29937 -0.55209,0.42151c-0.03341,0.04268 -0.0674,0.08491 -0.10198,0.12664c-0.18166,0.21919 -0.37818,0.43044 -0.60391,0.60391c-0.12549,0.09644 -0.3508,0.05854 -0.43361,0.19341c-0.06743,0.10981 0.08301,0.24871 0.08301,0.37757c0,0.34765 0.08263,0.73398 -0.08301,1.03963c-0.23187,0.42786 -0.82545,0.51781 -1.21475,0.80983c-0.29824,0.22372 0.65068,0.58572 0.58574,0.95285c-0.09079,0.51327 -1.02407,0.55703 -1.14611,1.06378c-0.03571,0.14827 0.13039,0.2846 0.13546,0.43702c0.01324,0.39757 0.09571,0.83433 -0.08125,1.19059c-0.15781,0.31772 -0.55784,0.43841 -0.83676,0.65761c0,0 -0.58372,0.38915 -0.97287,-0.19457c-0.38915,-0.58372 0.19458,-0.97287 0.19458,-0.97287c0.81757,-0.32926 -0.0639,-0.7574 0.22975,-1.56148c0.12589,-0.34471 0.4265,-0.61607 0.72692,-0.82683c0.00637,-0.00447 0.01377,-0.00772 0.022,-0.00992c-0.06022,-0.01167 -0.10811,-0.03461 -0.12415,-0.09014c-0.0446,-0.15441 -0.0762,-0.31845 -0.08951,-0.48403c-0.35636,0.12596 -0.6658,0.21429 -0.74207,0.18912c-0.4596,-0.15165 -0.76035,-0.63141 -1.00204,-1.05072c-0.10283,-0.17841 0.12794,-0.42968 0.04111,-0.6164c-0.06241,-0.1342 -0.28602,-0.09083 -0.40857,-0.17381c-0.23732,-0.1607 -0.44896,-0.3571 -0.66072,-0.55024c-0.39722,-0.36228 -0.65461,-0.85709 -1.03528,-1.23672c-0.74339,-0.74135 -1.21344,-0.94371 -1.37403,-2.06781c-0.1111,-0.1562 -0.2222,-0.31241 -0.33329,-0.46861l-0.14499,-0.27787c0,0 -0.31374,-0.62748 0.31374,-0.94122zM362.78122,90.72222c0.12514,0.03847 0.26147,0.12072 0.20359,0.06402c-0.04752,-0.04655 -0.12529,-0.05706 -0.20359,-0.06402z" fill="#d9d9d9"/><path d="M389.61699,96.58236c-0.66555,0.22185 -0.88739,-0.4437 -0.88739,-0.4437l-0.18173,-0.55287c-0.17791,-0.41711 -0.15514,-0.93198 -0.43456,-1.28913c-0.15514,-0.1983 -0.45446,-0.23542 -0.63143,-0.41451c-0.24392,-0.24682 -0.43424,-0.54424 -0.6111,-0.84281c-0.19054,-0.32167 -0.38472,-0.65082 -0.48668,-1.01051c-0.0627,-0.2212 0.06787,-0.46865 0.00473,-0.68972c-0.07027,-0.24606 -0.30783,-0.41879 -0.39045,-0.66099c-0.28188,-0.82637 -0.18309,-1.78709 0.10379,-2.5885c0.03238,-0.09046 0.06463,-0.18268 0.1026,-0.27188c-0.25121,0.06842 -0.5612,-0.00656 -0.83559,-0.00417c-1.09218,0.15593 -2.76628,0.61994 -3.68775,-0.34122c-0.69469,-0.72462 -0.44292,-2.24456 -1.09718,-3.077c0.04481,0.37108 -0.03884,0.82592 -0.24352,1.01622c-0.09731,0.09047 -1.99306,-0.07932 -2.3975,-0.05569c-0.09577,0.0056 -0.23825,-0.11105 -0.28644,-0.0281c-0.04697,0.08084 0.13984,0.13227 0.17577,0.21859c0.18269,0.43886 0.26279,0.9137 0.39335,1.37079c0.06988,0.24464 0.11195,0.49545 0.13572,0.74938l0.07278,-0.0182l0.19864,0.79457c0.01614,0.05906 0.02476,0.12123 0.02476,0.18541c0,0.38745 -0.31409,0.70155 -0.70155,0.70155c-0.14742,0 -0.28421,-0.04547 -0.39713,-0.12315l-0.5994,-0.39959l0.01364,-0.02046l-0.06926,-0.02073c-0.15719,-0.15985 -0.30022,-0.335 -0.47157,-0.47956c-0.12765,-0.10769 -0.28647,-0.17281 -0.42024,-0.2728c-0.00575,-0.0043 -0.01246,-0.01171 -0.01933,-0.02052c0.54351,0.92603 0.34609,2.44601 -1.07359,2.65278c-0.40131,0.05845 -1.71203,-1.38432 -2.06879,-1.68104c0,0 -0.53894,-0.44912 -0.08982,-0.98806c0.44912,-0.53894 0.98806,-0.08982 0.98806,-0.08982c0.25148,0.20994 0.89558,0.58161 1.11121,0.99176c-0.00981,-0.12236 -0.01693,-0.24501 -0.02958,-0.3671c-0.04173,-0.40277 -0.35378,-0.86678 -0.13464,-1.20729c0.58938,-0.91584 1.35334,-0.83485 2.03193,-0.45916c-0.23999,-0.70539 -0.58403,-1.7232 -0.29414,-2.20476c0.21875,-0.36339 0.81945,-0.62161 1.44012,-0.73167c-0.30127,-0.04144 -0.59952,-0.15769 -0.89056,-0.42563c-0.43458,-0.40007 -0.47876,-1.09147 -0.58613,-1.67232c-0.042,-0.22719 -0.57432,-0.17487 -0.61634,-0.17606c-0.52537,-0.01485 -1.05369,-0.08741 -1.5602,-0.22769c0,0 -0.67455,-0.19273 -0.48182,-0.86728c0.19273,-0.67455 0.86728,-0.48182 0.86728,-0.48182c1.14649,0.34076 2.39605,-0.1042 3.08737,1.21592c0.2756,0.52628 -0.21941,0.77385 0.22371,1.16209c0.61791,0.54138 2.00332,-0.09442 2.75814,0.28944c0.02537,0.0129 0.05035,0.0261 0.07494,0.03959c0.15445,0.04378 0.30171,0.0903 0.43573,0.12737c0.11244,0.03111 0.23332,0.04592 0.35111,0.06703c-0.06735,-0.29661 -0.09556,-0.61145 0.05933,-0.8497c0.65263,-1.00391 2.20453,-0.66885 3.1342,-0.55409c0.23823,0.03402 0.47647,0.06805 0.7147,0.10208l0.41699,0.16824c0,0 0.62748,0.31374 0.31374,0.94122c-0.31374,0.62748 -0.94122,0.31374 -0.94122,0.31374l0.01207,-0.03422c-0.23417,-0.03346 -0.46834,-0.06692 -0.70251,-0.10038c-0.49297,-0.06249 -0.99055,-0.08219 -1.48672,-0.10935c-0.08034,-0.0044 -0.22066,-0.11838 -0.23808,-0.03983c-0.02402,0.10839 0.18507,0.16553 0.18561,0.27654c0.00253,0.52426 0.21646,1.21607 -0.17674,1.56284c-0.06551,0.05778 -0.32103,0.0304 -0.63342,-0.03193c0.09995,0.25149 0.18819,0.50995 0.27431,0.76723c0.12727,0.3802 0.0289,0.84926 0.26511,1.17322c0.27369,0.37535 2.44911,-0.11885 2.53202,-0.1307c0.26736,-0.00015 0.53496,0.01092 0.80207,-0.00045c0.43018,-0.01831 0.94654,-0.34996 1.28868,-0.08855c1.22485,0.93581 -0.48269,2.69906 -0.03157,3.89752c0.10155,0.26976 0.34016,0.47907 0.41939,0.75622c0.12609,0.44109 0.08842,0.94535 0.32789,1.33664c0.29027,0.47429 0.85937,0.72286 1.18697,1.17218c0.32398,0.44435 0.36013,1.04025 0.57773,1.54529l0.22318,0.66188c0,0 0.22185,0.66555 -0.4437,0.88739z" fill="#d8d8d8"/></g></g></g></svg>